solid OpenSCAD_Model
  facet normal -1 0 0
    outer loop
      vertex 0 0 0
      vertex 0 0 5.5
      vertex 0 8.5 0
    endloop
  endfacet
  facet normal -1 0 0
    outer loop
      vertex 0 8.5 0
      vertex 0 0 5.5
      vertex 0 8.5 5.5
    endloop
  endfacet
  facet normal 0 -1 0
    outer loop
      vertex 15.65 0 3.19577
      vertex 0 0 0
      vertex 42 0 0
    endloop
  endfacet
  facet normal 0 -1 0
    outer loop
      vertex 8.45 0 3.19577
      vertex 8.45 0 5.5
      vertex 0 0 5.5
    endloop
  endfacet
  facet normal 0 -1 0
    outer loop
      vertex 42 0 5.5
      vertex 15.65 0 5.5
      vertex 42 0 0
    endloop
  endfacet
  facet normal 0 -1 0
    outer loop
      vertex 8.45 0 3.19577
      vertex 0 0 0
      vertex 15.65 0 3.19577
    endloop
  endfacet
  facet normal 0 -1 0
    outer loop
      vertex 0 0 5.5
      vertex 0 0 0
      vertex 8.45 0 3.19577
    endloop
  endfacet
  facet normal 0 -1 0
    outer loop
      vertex 15.65 0 5.5
      vertex 15.65 0 3.19577
      vertex 42 0 0
    endloop
  endfacet
  facet normal 0 0 -1
    outer loop
      vertex 6.05623 5.9619 0
      vertex 0 8.5 0
      vertex 42 0 0
    endloop
  endfacet
  facet normal 0 0 -1
    outer loop
      vertex 36.5 6.05 0
      vertex 0 8.5 0
      vertex 42 8.5 0
    endloop
  endfacet
  facet normal 0 0 -1
    outer loop
      vertex 0 0 0
      vertex 0 8.5 0
      vertex 3.7 4.25 0
    endloop
  endfacet
  facet normal 0 0 -1
    outer loop
      vertex 0 0 0
      vertex 3.7 4.25 0
      vertex 3.7881 3.69377 0
    endloop
  endfacet
  facet normal 0 0 -1
    outer loop
      vertex 0 0 0
      vertex 3.7881 3.69377 0
      vertex 4.04377 3.19199 0
    endloop
  endfacet
  facet normal 0 0 -1
    outer loop
      vertex 0 0 0
      vertex 4.04377 3.19199 0
      vertex 4.44199 2.79377 0
    endloop
  endfacet
  facet normal 0 0 -1
    outer loop
      vertex 0 0 0
      vertex 4.44199 2.79377 0
      vertex 4.94377 2.5381 0
    endloop
  endfacet
  facet normal 0 0 -1
    outer loop
      vertex 0 0 0
      vertex 4.94377 2.5381 0
      vertex 5.5 2.45 0
    endloop
  endfacet
  facet normal 0 0 -1
    outer loop
      vertex 0 0 0
      vertex 5.5 2.45 0
      vertex 42 0 0
    endloop
  endfacet
  facet normal 0 0 -1
    outer loop
      vertex 6.55801 2.79377 0
      vertex 42 0 0
      vertex 6.05623 2.5381 0
    endloop
  endfacet
  facet normal 0 0 -1
    outer loop
      vertex 6.95623 3.19199 0
      vertex 42 0 0
      vertex 6.55801 2.79377 0
    endloop
  endfacet
  facet normal 0 0 -1
    outer loop
      vertex 7.2119 3.69377 0
      vertex 42 0 0
      vertex 6.95623 3.19199 0
    endloop
  endfacet
  facet normal 0 0 -1
    outer loop
      vertex 7.3 4.25 0
      vertex 42 0 0
      vertex 7.2119 3.69377 0
    endloop
  endfacet
  facet normal 0 0 -1
    outer loop
      vertex 36.5 2.45 0
      vertex 42 0 0
      vertex 35.9438 2.5381 0
    endloop
  endfacet
  facet normal 0 0 -1
    outer loop
      vertex 5.5 6.05 0
      vertex 0 8.5 0
      vertex 6.05623 5.9619 0
    endloop
  endfacet
  facet normal 0 0 -1
    outer loop
      vertex 4.44199 5.70623 0
      vertex 0 8.5 0
      vertex 4.94377 5.9619 0
    endloop
  endfacet
  facet normal 0 0 -1
    outer loop
      vertex 7.3 4.25 0
      vertex 7.2119 4.80623 0
      vertex 42 0 0
    endloop
  endfacet
  facet normal 0 0 -1
    outer loop
      vertex 7.2119 4.80623 0
      vertex 6.95623 5.30801 0
      vertex 42 0 0
    endloop
  endfacet
  facet normal 0 0 -1
    outer loop
      vertex 4.94377 5.9619 0
      vertex 0 8.5 0
      vertex 5.5 6.05 0
    endloop
  endfacet
  facet normal 0 0 -1
    outer loop
      vertex 6.95623 5.30801 0
      vertex 6.55801 5.70623 0
      vertex 42 0 0
    endloop
  endfacet
  facet normal 0 0 -1
    outer loop
      vertex 6.55801 5.70623 0
      vertex 6.05623 5.9619 0
      vertex 42 0 0
    endloop
  endfacet
  facet normal 0 0 -1
    outer loop
      vertex 4.04377 5.30801 0
      vertex 0 8.5 0
      vertex 4.44199 5.70623 0
    endloop
  endfacet
  facet normal 0 0 -1
    outer loop
      vertex 3.7881 4.80623 0
      vertex 0 8.5 0
      vertex 4.04377 5.30801 0
    endloop
  endfacet
  facet normal 0 0 -1
    outer loop
      vertex 3.7 4.25 0
      vertex 0 8.5 0
      vertex 3.7881 4.80623 0
    endloop
  endfacet
  facet normal 0 0 -1
    outer loop
      vertex 34.7881 3.69377 0
      vertex 0 8.5 0
      vertex 34.7 4.25 0
    endloop
  endfacet
  facet normal 0 0 -1
    outer loop
      vertex 35.0438 3.19199 0
      vertex 0 8.5 0
      vertex 34.7881 3.69377 0
    endloop
  endfacet
  facet normal 0 0 -1
    outer loop
      vertex 35.442 2.79377 0
      vertex 0 8.5 0
      vertex 35.0438 3.19199 0
    endloop
  endfacet
  facet normal 0 0 -1
    outer loop
      vertex 35.9438 2.5381 0
      vertex 0 8.5 0
      vertex 35.442 2.79377 0
    endloop
  endfacet
  facet normal 0 0 -1
    outer loop
      vertex 42 0 0
      vertex 0 8.5 0
      vertex 35.9438 2.5381 0
    endloop
  endfacet
  facet normal 0 0 -1
    outer loop
      vertex 37.0562 2.5381 0
      vertex 42 0 0
      vertex 36.5 2.45 0
    endloop
  endfacet
  facet normal 0 0 -1
    outer loop
      vertex 37.558 2.79377 0
      vertex 42 0 0
      vertex 37.0562 2.5381 0
    endloop
  endfacet
  facet normal 0 0 -1
    outer loop
      vertex 38.2119 3.69377 0
      vertex 42 8.5 0
      vertex 37.9562 3.19199 0
    endloop
  endfacet
  facet normal 0 0 -1
    outer loop
      vertex 42 0 0
      vertex 37.558 2.79377 0
      vertex 37.9562 3.19199 0
    endloop
  endfacet
  facet normal 0 0 -1
    outer loop
      vertex 42 0 0
      vertex 37.9562 3.19199 0
      vertex 42 8.5 0
    endloop
  endfacet
  facet normal 0 0 -1
    outer loop
      vertex 37.0562 5.9619 0
      vertex 42 8.5 0
      vertex 37.558 5.70623 0
    endloop
  endfacet
  facet normal 0 0 -1
    outer loop
      vertex 38.2119 3.69377 0
      vertex 38.3 4.25 0
      vertex 42 8.5 0
    endloop
  endfacet
  facet normal 0 0 -1
    outer loop
      vertex 38.3 4.25 0
      vertex 38.2119 4.80623 0
      vertex 42 8.5 0
    endloop
  endfacet
  facet normal 0 0 -1
    outer loop
      vertex 38.2119 4.80623 0
      vertex 37.9562 5.30801 0
      vertex 42 8.5 0
    endloop
  endfacet
  facet normal 0 0 -1
    outer loop
      vertex 37.9562 5.30801 0
      vertex 37.558 5.70623 0
      vertex 42 8.5 0
    endloop
  endfacet
  facet normal 0 0 -1
    outer loop
      vertex 35.9438 5.9619 0
      vertex 0 8.5 0
      vertex 36.5 6.05 0
    endloop
  endfacet
  facet normal 0 0 -1
    outer loop
      vertex 37.0562 5.9619 0
      vertex 36.5 6.05 0
      vertex 42 8.5 0
    endloop
  endfacet
  facet normal 0 0 -1
    outer loop
      vertex 35.442 5.70623 0
      vertex 0 8.5 0
      vertex 35.9438 5.9619 0
    endloop
  endfacet
  facet normal 0 0 -1
    outer loop
      vertex 35.0438 5.30801 0
      vertex 0 8.5 0
      vertex 35.442 5.70623 0
    endloop
  endfacet
  facet normal 0 0 -1
    outer loop
      vertex 34.7881 4.80623 0
      vertex 0 8.5 0
      vertex 35.0438 5.30801 0
    endloop
  endfacet
  facet normal 0 0 -1
    outer loop
      vertex 34.7 4.25 0
      vertex 0 8.5 0
      vertex 34.7881 4.80623 0
    endloop
  endfacet
  facet normal 0 0 -1
    outer loop
      vertex 6.05623 2.5381 0
      vertex 42 0 0
      vertex 5.5 2.45 0
    endloop
  endfacet
  facet normal 0 1 0
    outer loop
      vertex 0 8.5 0
      vertex 0 8.5 5.5
      vertex 8.45 8.5 3.19577
    endloop
  endfacet
  facet normal 0 1 0
    outer loop
      vertex 0 8.5 0
      vertex 8.45 8.5 3.19577
      vertex 42 8.5 0
    endloop
  endfacet
  facet normal 0 1 0
    outer loop
      vertex 15.65 8.5 5.5
      vertex 42 8.5 0
      vertex 15.65 8.5 3.19577
    endloop
  endfacet
  facet normal 0 1 0
    outer loop
      vertex 8.45 8.5 3.19577
      vertex 15.65 8.5 3.19577
      vertex 42 8.5 0
    endloop
  endfacet
  facet normal 0 1 0
    outer loop
      vertex 42 8.5 0
      vertex 15.65 8.5 5.5
      vertex 42 8.5 5.5
    endloop
  endfacet
  facet normal 0 1 0
    outer loop
      vertex 8.45 8.5 3.19577
      vertex 0 8.5 5.5
      vertex 8.45 8.5 5.5
    endloop
  endfacet
  facet normal 0 0 1
    outer loop
      vertex 5.5 1.3 5.5
      vertex 0 0 5.5
      vertex 8.45 0 5.5
    endloop
  endfacet
  facet normal 0 0 1
    outer loop
      vertex 0 8.5 5.5
      vertex 0 0 5.5
      vertex 2.69438 3.3384 5.5
    endloop
  endfacet
  facet normal 0 0 1
    outer loop
      vertex 6.4116 1.44438 5.5
      vertex 5.5 1.3 5.5
      vertex 8.45 0 5.5
    endloop
  endfacet
  facet normal 0 0 1
    outer loop
      vertex 0 8.5 5.5
      vertex 2.69438 3.3384 5.5
      vertex 2.55 4.25 5.5
    endloop
  endfacet
  facet normal 0 0 1
    outer loop
      vertex 4.5884 7.05562 5.5
      vertex 5.5 7.2 5.5
      vertex 8.45 8.5 5.5
    endloop
  endfacet
  facet normal 0 0 1
    outer loop
      vertex 0 8.5 5.5
      vertex 2.55 4.25 5.5
      vertex 2.69438 5.1616 5.5
    endloop
  endfacet
  facet normal 0 0 1
    outer loop
      vertex 3.76603 6.6366 5.5
      vertex 0 8.5 5.5
      vertex 3.1134 5.98397 5.5
    endloop
  endfacet
  facet normal 0 0 1
    outer loop
      vertex 4.5884 7.05562 5.5
      vertex 0 8.5 5.5
      vertex 3.76603 6.6366 5.5
    endloop
  endfacet
  facet normal 0 0 1
    outer loop
      vertex 5.5 7.2 5.5
      vertex 6.4116 7.05562 5.5
      vertex 8.45 8.5 5.5
    endloop
  endfacet
  facet normal 0 0 1
    outer loop
      vertex 8.45 8.5 5.5
      vertex 0 8.5 5.5
      vertex 4.5884 7.05562 5.5
    endloop
  endfacet
  facet normal 0 0 1
    outer loop
      vertex 8.45 4.25 5.5
      vertex 8.30562 3.3384 5.5
      vertex 8.45 0 5.5
    endloop
  endfacet
  facet normal 0 0 1
    outer loop
      vertex 7.8866 2.51603 5.5
      vertex 7.23397 1.8634 5.5
      vertex 8.45 0 5.5
    endloop
  endfacet
  facet normal 0 0 1
    outer loop
      vertex 8.45 8.5 5.5
      vertex 6.4116 7.05562 5.5
      vertex 7.23397 6.6366 5.5
    endloop
  endfacet
  facet normal 0 0 1
    outer loop
      vertex 8.45 8.5 5.5
      vertex 7.23397 6.6366 5.5
      vertex 7.8866 5.98397 5.5
    endloop
  endfacet
  facet normal 0 0 1
    outer loop
      vertex 8.45 8.5 5.5
      vertex 7.8866 5.98397 5.5
      vertex 8.30562 5.1616 5.5
    endloop
  endfacet
  facet normal 0 0 1
    outer loop
      vertex 8.45 8.5 5.5
      vertex 8.45 4.25 5.5
      vertex 8.45 0 5.5
    endloop
  endfacet
  facet normal 0 0 1
    outer loop
      vertex 8.45 8.5 5.5
      vertex 8.30562 5.1616 5.5
      vertex 8.45 4.25 5.5
    endloop
  endfacet
  facet normal 0 0 1
    outer loop
      vertex 4.5884 1.44438 5.5
      vertex 0 0 5.5
      vertex 5.5 1.3 5.5
    endloop
  endfacet
  facet normal 0 0 1
    outer loop
      vertex 3.76603 1.8634 5.5
      vertex 0 0 5.5
      vertex 4.5884 1.44438 5.5
    endloop
  endfacet
  facet normal 0 0 1
    outer loop
      vertex 3.1134 2.51603 5.5
      vertex 0 0 5.5
      vertex 3.76603 1.8634 5.5
    endloop
  endfacet
  facet normal 0 0 1
    outer loop
      vertex 2.69438 3.3384 5.5
      vertex 0 0 5.5
      vertex 3.1134 2.51603 5.5
    endloop
  endfacet
  facet normal 0 0 1
    outer loop
      vertex 2.69438 5.1616 5.5
      vertex 3.1134 5.98397 5.5
      vertex 0 8.5 5.5
    endloop
  endfacet
  facet normal 0 0 1
    outer loop
      vertex 8.30562 3.3384 5.5
      vertex 7.8866 2.51603 5.5
      vertex 8.45 0 5.5
    endloop
  endfacet
  facet normal 0 0 1
    outer loop
      vertex 7.23397 1.8634 5.5
      vertex 6.4116 1.44438 5.5
      vertex 8.45 0 5.5
    endloop
  endfacet
  facet normal -1 1.11022e-16 -1.92296e-16
    outer loop
      vertex 8.45 -0.25 18.7842
      vertex 8.45 8.75 18.7842
      vertex 8.45 -4.75 10.99
    endloop
  endfacet
  facet normal -1 1.11022e-16 -1.92296e-16
    outer loop
      vertex 8.45 6.3125 14.5624
      vertex 8.45 8.75 18.7842
      vertex 8.45 13.25 10.99
    endloop
  endfacet
  facet normal -1 1.11022e-16 -1.92296e-16
    outer loop
      vertex 8.45 8.5 5.5
      vertex 8.45 13.25 10.99
      vertex 8.45 8.75 3.19577
    endloop
  endfacet
  facet normal -1 1.11022e-16 -1.92296e-16
    outer loop
      vertex 8.45 6.3125 7.41765
      vertex 8.45 13.25 10.99
      vertex 8.45 8.5 5.5
    endloop
  endfacet
  facet normal -1 1.11022e-16 -1.92296e-16
    outer loop
      vertex 8.45 0 5.5
      vertex 8.45 -4.75 10.99
      vertex 8.45 2.1875 7.41765
    endloop
  endfacet
  facet normal -1 1.11022e-16 -1.92296e-16
    outer loop
      vertex 8.45 0.125 10.99
      vertex 8.45 -4.75 10.99
      vertex 8.45 2.1875 14.5624
    endloop
  endfacet
  facet normal -1 1.11022e-16 -1.92296e-16
    outer loop
      vertex 8.45 -4.75 10.99
      vertex 8.45 0 5.5
      vertex 8.45 0 3.19577
    endloop
  endfacet
  facet normal -1 1.11022e-16 -1.92296e-16
    outer loop
      vertex 8.45 -4.75 10.99
      vertex 8.45 0 3.19577
      vertex 8.45 -0.25 3.19577
    endloop
  endfacet
  facet normal -1 1.11022e-16 -1.92296e-16
    outer loop
      vertex 8.45 -4.75 10.99
      vertex 8.45 8.75 18.7842
      vertex 8.45 2.1875 14.5624
    endloop
  endfacet
  facet normal -1 1.11022e-16 -1.92296e-16
    outer loop
      vertex 8.45 2.1875 7.41765
      vertex 8.45 -4.75 10.99
      vertex 8.45 0.125 10.99
    endloop
  endfacet
  facet normal -1 1.11022e-16 -1.92296e-16
    outer loop
      vertex 8.45 6.3125 7.41765
      vertex 8.45 8.5 5.5
      vertex 8.45 2.1875 7.41765
    endloop
  endfacet
  facet normal -1 1.11022e-16 -1.92296e-16
    outer loop
      vertex 8.45 0 5.5
      vertex 8.45 2.1875 7.41765
      vertex 8.45 8.5 5.5
    endloop
  endfacet
  facet normal -1 1.11022e-16 -1.92296e-16
    outer loop
      vertex 8.45 8.375 10.99
      vertex 8.45 13.25 10.99
      vertex 8.45 6.3125 7.41765
    endloop
  endfacet
  facet normal -1 1.11022e-16 -1.92296e-16
    outer loop
      vertex 8.45 2.1875 14.5624
      vertex 8.45 8.75 18.7842
      vertex 8.45 6.3125 14.5624
    endloop
  endfacet
  facet normal -1 1.11022e-16 -1.92296e-16
    outer loop
      vertex 8.45 8.5 5.5
      vertex 8.45 8.75 3.19577
      vertex 8.45 8.5 3.19577
    endloop
  endfacet
  facet normal -1 1.11022e-16 -1.92296e-16
    outer loop
      vertex 8.45 6.3125 14.5624
      vertex 8.45 13.25 10.99
      vertex 8.45 8.375 10.99
    endloop
  endfacet
  facet normal 1.92296e-16 2.033e-08 -1
    outer loop
      vertex 8.45 -0.25 3.19577
      vertex 8.45 0 3.19577
      vertex 15.65 -0.25 3.19577
    endloop
  endfacet
  facet normal 1.92296e-16 2.033e-08 -1
    outer loop
      vertex 15.65 -0.25 3.19577
      vertex 8.45 0 3.19577
      vertex 15.65 0 3.19577
    endloop
  endfacet
  facet normal 1 -1.11022e-16 1.92296e-16
    outer loop
      vertex 15.65 8.75 18.7842
      vertex 15.65 -0.25 18.7842
      vertex 15.65 -4.75 10.99
    endloop
  endfacet
  facet normal 1 -1.11022e-16 1.92296e-16
    outer loop
      vertex 15.65 0 5.5
      vertex 15.65 3.37552 9.02588
      vertex 15.65 2.81137 9.39224
    endloop
  endfacet
  facet normal 1 -1.11022e-16 1.92296e-16
    outer loop
      vertex 15.65 2.65224 12.4286
      vertex 15.65 8.75 18.7842
      vertex 15.65 -4.75 10.99
    endloop
  endfacet
  facet normal 1 -1.11022e-16 1.92296e-16
    outer loop
      vertex 15.65 -0.25 3.19577
      vertex 15.65 0 5.5
      vertex 15.65 -4.75 10.99
    endloop
  endfacet
  facet normal 1 -1.11022e-16 1.92296e-16
    outer loop
      vertex 15.65 8.5 3.19577
      vertex 15.65 8.75 18.7842
      vertex 15.65 8.5 5.5
    endloop
  endfacet
  facet normal 1 -1.11022e-16 1.92296e-16
    outer loop
      vertex 15.65 8.75 3.19577
      vertex 15.65 8.75 18.7842
      vertex 15.65 8.5 3.19577
    endloop
  endfacet
  facet normal 1 -1.11022e-16 1.92296e-16
    outer loop
      vertex 15.65 13.25 10.99
      vertex 15.65 8.75 18.7842
      vertex 15.65 8.75 3.19577
    endloop
  endfacet
  facet normal 1 -1.11022e-16 1.92296e-16
    outer loop
      vertex 15.65 2.28588 11.8645
      vertex 15.65 2.65224 12.4286
      vertex 15.65 -4.75 10.99
    endloop
  endfacet
  facet normal 1 -1.11022e-16 1.92296e-16
    outer loop
      vertex 15.65 3.175 12.852
      vertex 15.65 8.75 18.7842
      vertex 15.65 2.65224 12.4286
    endloop
  endfacet
  facet normal 1 -1.11022e-16 1.92296e-16
    outer loop
      vertex 15.65 3.80299 13.093
      vertex 15.65 8.75 18.7842
      vertex 15.65 3.175 12.852
    endloop
  endfacet
  facet normal 1 -1.11022e-16 1.92296e-16
    outer loop
      vertex 15.65 2.14698 10.543
      vertex 15.65 2.11178 11.2147
      vertex 15.65 0 5.5
    endloop
  endfacet
  facet normal 1 -1.11022e-16 1.92296e-16
    outer loop
      vertex 15.65 4.47474 13.1282
      vertex 15.65 8.75 18.7842
      vertex 15.65 3.80299 13.093
    endloop
  endfacet
  facet normal 1 -1.11022e-16 1.92296e-16
    outer loop
      vertex 15.65 5.12448 12.9541
      vertex 15.65 5.68863 12.5878
      vertex 15.65 8.75 18.7842
    endloop
  endfacet
  facet normal 1 -1.11022e-16 1.92296e-16
    outer loop
      vertex 15.65 2.38805 9.915
      vertex 15.65 2.14698 10.543
      vertex 15.65 0 5.5
    endloop
  endfacet
  facet normal 1 -1.11022e-16 1.92296e-16
    outer loop
      vertex 15.65 6.11195 12.065
      vertex 15.65 8.75 18.7842
      vertex 15.65 5.68863 12.5878
    endloop
  endfacet
  facet normal 1 -1.11022e-16 1.92296e-16
    outer loop
      vertex 15.65 6.35302 11.437
      vertex 15.65 8.75 18.7842
      vertex 15.65 6.11195 12.065
    endloop
  endfacet
  facet normal 1 -1.11022e-16 1.92296e-16
    outer loop
      vertex 15.65 2.81137 9.39224
      vertex 15.65 2.38805 9.915
      vertex 15.65 0 5.5
    endloop
  endfacet
  facet normal 1 -1.11022e-16 1.92296e-16
    outer loop
      vertex 15.65 8.5 5.5
      vertex 15.65 8.75 18.7842
      vertex 15.65 6.35302 11.437
    endloop
  endfacet
  facet normal 1 -1.11022e-16 1.92296e-16
    outer loop
      vertex 15.65 4.47474 13.1282
      vertex 15.65 5.12448 12.9541
      vertex 15.65 8.75 18.7842
    endloop
  endfacet
  facet normal 1 -1.11022e-16 1.92296e-16
    outer loop
      vertex 15.65 8.5 5.5
      vertex 15.65 6.38822 10.7653
      vertex 15.65 6.21412 10.1155
    endloop
  endfacet
  facet normal 1 -1.11022e-16 1.92296e-16
    outer loop
      vertex 15.65 8.5 5.5
      vertex 15.65 6.21412 10.1155
      vertex 15.65 5.84776 9.55137
    endloop
  endfacet
  facet normal 1 -1.11022e-16 1.92296e-16
    outer loop
      vertex 15.65 6.35302 11.437
      vertex 15.65 6.38822 10.7653
      vertex 15.65 8.5 5.5
    endloop
  endfacet
  facet normal 1 -1.11022e-16 1.92296e-16
    outer loop
      vertex 15.65 0 5.5
      vertex 15.65 2.11178 11.2147
      vertex 15.65 -4.75 10.99
    endloop
  endfacet
  facet normal 1 -1.11022e-16 1.92296e-16
    outer loop
      vertex 15.65 2.11178 11.2147
      vertex 15.65 2.28588 11.8645
      vertex 15.65 -4.75 10.99
    endloop
  endfacet
  facet normal 1 -1.11022e-16 1.92296e-16
    outer loop
      vertex 15.65 0 3.19577
      vertex 15.65 0 5.5
      vertex 15.65 -0.25 3.19577
    endloop
  endfacet
  facet normal 1 -1.11022e-16 1.92296e-16
    outer loop
      vertex 15.65 0 5.5
      vertex 15.65 4.02526 8.85178
      vertex 15.65 3.37552 9.02588
    endloop
  endfacet
  facet normal 1 -1.11022e-16 1.92296e-16
    outer loop
      vertex 15.65 0 5.5
      vertex 15.65 4.69701 8.88698
      vertex 15.65 4.02526 8.85178
    endloop
  endfacet
  facet normal 1 -1.11022e-16 1.92296e-16
    outer loop
      vertex 15.65 0 5.5
      vertex 15.65 5.325 9.12805
      vertex 15.65 4.69701 8.88698
    endloop
  endfacet
  facet normal 1 -1.11022e-16 1.92296e-16
    outer loop
      vertex 15.65 5.325 9.12805
      vertex 15.65 8.5 5.5
      vertex 15.65 5.84776 9.55137
    endloop
  endfacet
  facet normal 1 -1.11022e-16 1.92296e-16
    outer loop
      vertex 15.65 0 5.5
      vertex 15.65 8.5 5.5
      vertex 15.65 5.325 9.12805
    endloop
  endfacet
  facet normal 0 0 1
    outer loop
      vertex 36.5 1.3 5.5
      vertex 15.65 0 5.5
      vertex 42 0 5.5
    endloop
  endfacet
  facet normal 0 0 1
    outer loop
      vertex 33.55 4.25 5.5
      vertex 15.65 8.5 5.5
      vertex 33.6944 3.3384 5.5
    endloop
  endfacet
  facet normal 0 0 1
    outer loop
      vertex 33.6944 5.1616 5.5
      vertex 15.65 8.5 5.5
      vertex 33.55 4.25 5.5
    endloop
  endfacet
  facet normal 0 0 1
    outer loop
      vertex 34.1134 5.98397 5.5
      vertex 15.65 8.5 5.5
      vertex 33.6944 5.1616 5.5
    endloop
  endfacet
  facet normal 0 0 1
    outer loop
      vertex 34.766 6.6366 5.5
      vertex 15.65 8.5 5.5
      vertex 34.1134 5.98397 5.5
    endloop
  endfacet
  facet normal 0 0 1
    outer loop
      vertex 35.5884 7.05562 5.5
      vertex 15.65 8.5 5.5
      vertex 34.766 6.6366 5.5
    endloop
  endfacet
  facet normal 0 0 1
    outer loop
      vertex 42 8.5 5.5
      vertex 15.65 8.5 5.5
      vertex 35.5884 7.05562 5.5
    endloop
  endfacet
  facet normal 0 0 1
    outer loop
      vertex 42 8.5 5.5
      vertex 35.5884 7.05562 5.5
      vertex 36.5 7.2 5.5
    endloop
  endfacet
  facet normal 0 0 1
    outer loop
      vertex 38.234 6.6366 5.5
      vertex 38.8866 5.98397 5.5
      vertex 42 8.5 5.5
    endloop
  endfacet
  facet normal 0 0 1
    outer loop
      vertex 38.234 1.8634 5.5
      vertex 37.4116 1.44438 5.5
      vertex 42 0 5.5
    endloop
  endfacet
  facet normal 0 0 1
    outer loop
      vertex 42 8.5 5.5
      vertex 38.8866 5.98397 5.5
      vertex 42 0 5.5
    endloop
  endfacet
  facet normal 0 0 1
    outer loop
      vertex 38.8866 5.98397 5.5
      vertex 39.3056 5.1616 5.5
      vertex 42 0 5.5
    endloop
  endfacet
  facet normal 0 0 1
    outer loop
      vertex 39.3056 5.1616 5.5
      vertex 39.45 4.25 5.5
      vertex 42 0 5.5
    endloop
  endfacet
  facet normal 0 0 1
    outer loop
      vertex 39.45 4.25 5.5
      vertex 39.3056 3.3384 5.5
      vertex 42 0 5.5
    endloop
  endfacet
  facet normal 0 0 1
    outer loop
      vertex 39.3056 3.3384 5.5
      vertex 38.8866 2.51603 5.5
      vertex 42 0 5.5
    endloop
  endfacet
  facet normal 0 0 1
    outer loop
      vertex 38.8866 2.51603 5.5
      vertex 38.234 1.8634 5.5
      vertex 42 0 5.5
    endloop
  endfacet
  facet normal 0 0 1
    outer loop
      vertex 37.4116 1.44438 5.5
      vertex 36.5 1.3 5.5
      vertex 42 0 5.5
    endloop
  endfacet
  facet normal 0 0 1
    outer loop
      vertex 34.766 1.8634 5.5
      vertex 34.1134 2.51603 5.5
      vertex 15.65 8.5 5.5
    endloop
  endfacet
  facet normal 0 0 1
    outer loop
      vertex 15.65 8.5 5.5
      vertex 15.65 0 5.5
      vertex 35.5884 1.44438 5.5
    endloop
  endfacet
  facet normal 0 0 1
    outer loop
      vertex 15.65 8.5 5.5
      vertex 35.5884 1.44438 5.5
      vertex 34.766 1.8634 5.5
    endloop
  endfacet
  facet normal 0 0 1
    outer loop
      vertex 36.5 7.2 5.5
      vertex 37.4116 7.05562 5.5
      vertex 42 8.5 5.5
    endloop
  endfacet
  facet normal 0 0 1
    outer loop
      vertex 36.5 1.3 5.5
      vertex 35.5884 1.44438 5.5
      vertex 15.65 0 5.5
    endloop
  endfacet
  facet normal 0 0 1
    outer loop
      vertex 34.1134 2.51603 5.5
      vertex 33.6944 3.3384 5.5
      vertex 15.65 8.5 5.5
    endloop
  endfacet
  facet normal 0 0 1
    outer loop
      vertex 37.4116 7.05562 5.5
      vertex 38.234 6.6366 5.5
      vertex 42 8.5 5.5
    endloop
  endfacet
  facet normal 1 0 0
    outer loop
      vertex 42 0 5.5
      vertex 42 0 0
      vertex 42 8.5 0
    endloop
  endfacet
  facet normal 1 0 0
    outer loop
      vertex 42 8.5 5.5
      vertex 42 0 5.5
      vertex 42 8.5 0
    endloop
  endfacet
  facet normal 0.987688 -0.156434 0
    outer loop
      vertex 3.7881 4.80623 0
      vertex 3.7881 4.80623 2.8
      vertex 3.7 4.25 2.8
    endloop
  endfacet
  facet normal 0.987688 -0.156434 0
    outer loop
      vertex 3.7 4.25 0
      vertex 3.7881 4.80623 0
      vertex 3.7 4.25 2.8
    endloop
  endfacet
  facet normal 0.987688 0.156434 0
    outer loop
      vertex 3.7 4.25 2.8
      vertex 3.7881 3.69377 2.8
      vertex 3.7881 3.69377 0
    endloop
  endfacet
  facet normal 0.987688 0.156434 0
    outer loop
      vertex 3.7 4.25 0
      vertex 3.7 4.25 2.8
      vertex 3.7881 3.69377 0
    endloop
  endfacet
  facet normal 0.891006 -0.453991 0
    outer loop
      vertex 4.04377 5.30801 0
      vertex 4.04377 5.30801 2.8
      vertex 3.7881 4.80623 2.8
    endloop
  endfacet
  facet normal 0.891006 -0.453991 0
    outer loop
      vertex 3.7881 4.80623 0
      vertex 4.04377 5.30801 0
      vertex 3.7881 4.80623 2.8
    endloop
  endfacet
  facet normal 0.707107 -0.707107 0
    outer loop
      vertex 4.44199 5.70623 0
      vertex 4.44199 5.70623 2.8
      vertex 4.04377 5.30801 2.8
    endloop
  endfacet
  facet normal 0.707107 -0.707107 0
    outer loop
      vertex 4.04377 5.30801 0
      vertex 4.44199 5.70623 0
      vertex 4.04377 5.30801 2.8
    endloop
  endfacet
  facet normal 0.453991 -0.891006 0
    outer loop
      vertex 4.94377 5.9619 0
      vertex 4.94377 5.9619 2.8
      vertex 4.44199 5.70623 2.8
    endloop
  endfacet
  facet normal 0.453991 -0.891006 0
    outer loop
      vertex 4.44199 5.70623 0
      vertex 4.94377 5.9619 0
      vertex 4.44199 5.70623 2.8
    endloop
  endfacet
  facet normal 0.156434 -0.987688 0
    outer loop
      vertex 5.5 6.05 0
      vertex 5.5 6.05 2.8
      vertex 4.94377 5.9619 2.8
    endloop
  endfacet
  facet normal 0.156434 -0.987688 0
    outer loop
      vertex 4.94377 5.9619 0
      vertex 5.5 6.05 0
      vertex 4.94377 5.9619 2.8
    endloop
  endfacet
  facet normal -0.156434 -0.987688 0
    outer loop
      vertex 6.05623 5.9619 0
      vertex 6.05623 5.9619 2.8
      vertex 5.5 6.05 2.8
    endloop
  endfacet
  facet normal -0.156434 -0.987688 0
    outer loop
      vertex 5.5 6.05 0
      vertex 6.05623 5.9619 0
      vertex 5.5 6.05 2.8
    endloop
  endfacet
  facet normal -0.453991 -0.891006 0
    outer loop
      vertex 6.55801 5.70623 0
      vertex 6.55801 5.70623 2.8
      vertex 6.05623 5.9619 2.8
    endloop
  endfacet
  facet normal -0.453991 -0.891006 0
    outer loop
      vertex 6.05623 5.9619 0
      vertex 6.55801 5.70623 0
      vertex 6.05623 5.9619 2.8
    endloop
  endfacet
  facet normal -0.707107 -0.707107 0
    outer loop
      vertex 6.95623 5.30801 0
      vertex 6.95623 5.30801 2.8
      vertex 6.55801 5.70623 2.8
    endloop
  endfacet
  facet normal -0.707107 -0.707107 0
    outer loop
      vertex 6.55801 5.70623 0
      vertex 6.95623 5.30801 0
      vertex 6.55801 5.70623 2.8
    endloop
  endfacet
  facet normal -0.891006 -0.453991 0
    outer loop
      vertex 7.2119 4.80623 2.8
      vertex 6.95623 5.30801 2.8
      vertex 7.2119 4.80623 0
    endloop
  endfacet
  facet normal -0.891006 -0.453991 0
    outer loop
      vertex 7.2119 4.80623 0
      vertex 6.95623 5.30801 2.8
      vertex 6.95623 5.30801 0
    endloop
  endfacet
  facet normal -0.987688 -0.156434 0
    outer loop
      vertex 7.3 4.25 2.8
      vertex 7.2119 4.80623 2.8
      vertex 7.3 4.25 0
    endloop
  endfacet
  facet normal -0.987688 -0.156434 0
    outer loop
      vertex 7.3 4.25 0
      vertex 7.2119 4.80623 2.8
      vertex 7.2119 4.80623 0
    endloop
  endfacet
  facet normal -0.987688 0.156434 0
    outer loop
      vertex 7.3 4.25 2.8
      vertex 7.3 4.25 0
      vertex 7.2119 3.69377 2.8
    endloop
  endfacet
  facet normal -0.987688 0.156434 0
    outer loop
      vertex 7.2119 3.69377 2.8
      vertex 7.3 4.25 0
      vertex 7.2119 3.69377 0
    endloop
  endfacet
  facet normal -0.891006 0.453991 0
    outer loop
      vertex 7.2119 3.69377 2.8
      vertex 7.2119 3.69377 0
      vertex 6.95623 3.19199 2.8
    endloop
  endfacet
  facet normal -0.891006 0.453991 0
    outer loop
      vertex 6.95623 3.19199 2.8
      vertex 7.2119 3.69377 0
      vertex 6.95623 3.19199 0
    endloop
  endfacet
  facet normal -0.707107 0.707107 0
    outer loop
      vertex 6.95623 3.19199 2.8
      vertex 6.95623 3.19199 0
      vertex 6.55801 2.79377 2.8
    endloop
  endfacet
  facet normal -0.707107 0.707107 0
    outer loop
      vertex 6.55801 2.79377 2.8
      vertex 6.95623 3.19199 0
      vertex 6.55801 2.79377 0
    endloop
  endfacet
  facet normal -0.453991 0.891006 0
    outer loop
      vertex 6.55801 2.79377 2.8
      vertex 6.55801 2.79377 0
      vertex 6.05623 2.5381 2.8
    endloop
  endfacet
  facet normal -0.453991 0.891006 0
    outer loop
      vertex 6.05623 2.5381 2.8
      vertex 6.55801 2.79377 0
      vertex 6.05623 2.5381 0
    endloop
  endfacet
  facet normal -0.156434 0.987688 0
    outer loop
      vertex 6.05623 2.5381 2.8
      vertex 6.05623 2.5381 0
      vertex 5.5 2.45 2.8
    endloop
  endfacet
  facet normal -0.156434 0.987688 0
    outer loop
      vertex 5.5 2.45 2.8
      vertex 6.05623 2.5381 0
      vertex 5.5 2.45 0
    endloop
  endfacet
  facet normal 0.156434 0.987688 0
    outer loop
      vertex 5.5 2.45 2.8
      vertex 5.5 2.45 0
      vertex 4.94377 2.5381 2.8
    endloop
  endfacet
  facet normal 0.156434 0.987688 0
    outer loop
      vertex 4.94377 2.5381 2.8
      vertex 5.5 2.45 0
      vertex 4.94377 2.5381 0
    endloop
  endfacet
  facet normal 0.453991 0.891006 0
    outer loop
      vertex 4.94377 2.5381 2.8
      vertex 4.94377 2.5381 0
      vertex 4.44199 2.79377 2.8
    endloop
  endfacet
  facet normal 0.453991 0.891006 0
    outer loop
      vertex 4.44199 2.79377 2.8
      vertex 4.94377 2.5381 0
      vertex 4.44199 2.79377 0
    endloop
  endfacet
  facet normal 0.707107 0.707107 0
    outer loop
      vertex 4.44199 2.79377 2.8
      vertex 4.44199 2.79377 0
      vertex 4.04377 3.19199 2.8
    endloop
  endfacet
  facet normal 0.707107 0.707107 0
    outer loop
      vertex 4.04377 3.19199 2.8
      vertex 4.44199 2.79377 0
      vertex 4.04377 3.19199 0
    endloop
  endfacet
  facet normal 0.891006 0.453991 0
    outer loop
      vertex 3.7881 3.69377 2.8
      vertex 4.04377 3.19199 2.8
      vertex 4.04377 3.19199 0
    endloop
  endfacet
  facet normal 0.891006 0.453991 0
    outer loop
      vertex 3.7881 3.69377 0
      vertex 3.7881 3.69377 2.8
      vertex 4.04377 3.19199 0
    endloop
  endfacet
  facet normal 0.987688 -0.156434 0
    outer loop
      vertex 34.7881 4.80623 0
      vertex 34.7881 4.80623 2.8
      vertex 34.7 4.25 2.8
    endloop
  endfacet
  facet normal 0.987688 -0.156434 0
    outer loop
      vertex 34.7 4.25 0
      vertex 34.7881 4.80623 0
      vertex 34.7 4.25 2.8
    endloop
  endfacet
  facet normal 0.987688 0.156434 0
    outer loop
      vertex 34.7 4.25 2.8
      vertex 34.7881 3.69377 2.8
      vertex 34.7881 3.69377 0
    endloop
  endfacet
  facet normal 0.987688 0.156434 0
    outer loop
      vertex 34.7 4.25 0
      vertex 34.7 4.25 2.8
      vertex 34.7881 3.69377 0
    endloop
  endfacet
  facet normal 0.891006 -0.453991 0
    outer loop
      vertex 35.0438 5.30801 0
      vertex 35.0438 5.30801 2.8
      vertex 34.7881 4.80623 2.8
    endloop
  endfacet
  facet normal 0.891006 -0.453991 0
    outer loop
      vertex 34.7881 4.80623 0
      vertex 35.0438 5.30801 0
      vertex 34.7881 4.80623 2.8
    endloop
  endfacet
  facet normal 0.707107 -0.707107 0
    outer loop
      vertex 35.442 5.70623 0
      vertex 35.442 5.70623 2.8
      vertex 35.0438 5.30801 2.8
    endloop
  endfacet
  facet normal 0.707107 -0.707107 0
    outer loop
      vertex 35.0438 5.30801 0
      vertex 35.442 5.70623 0
      vertex 35.0438 5.30801 2.8
    endloop
  endfacet
  facet normal 0.453991 -0.891006 0
    outer loop
      vertex 35.9438 5.9619 0
      vertex 35.9438 5.9619 2.8
      vertex 35.442 5.70623 2.8
    endloop
  endfacet
  facet normal 0.453991 -0.891006 0
    outer loop
      vertex 35.442 5.70623 0
      vertex 35.9438 5.9619 0
      vertex 35.442 5.70623 2.8
    endloop
  endfacet
  facet normal 0.156434 -0.987688 0
    outer loop
      vertex 36.5 6.05 0
      vertex 36.5 6.05 2.8
      vertex 35.9438 5.9619 2.8
    endloop
  endfacet
  facet normal 0.156434 -0.987688 0
    outer loop
      vertex 35.9438 5.9619 0
      vertex 36.5 6.05 0
      vertex 35.9438 5.9619 2.8
    endloop
  endfacet
  facet normal -0.156434 -0.987688 0
    outer loop
      vertex 37.0562 5.9619 0
      vertex 37.0562 5.9619 2.8
      vertex 36.5 6.05 2.8
    endloop
  endfacet
  facet normal -0.156434 -0.987688 0
    outer loop
      vertex 36.5 6.05 0
      vertex 37.0562 5.9619 0
      vertex 36.5 6.05 2.8
    endloop
  endfacet
  facet normal -0.453991 -0.891006 0
    outer loop
      vertex 37.558 5.70623 0
      vertex 37.558 5.70623 2.8
      vertex 37.0562 5.9619 2.8
    endloop
  endfacet
  facet normal -0.453991 -0.891006 0
    outer loop
      vertex 37.0562 5.9619 0
      vertex 37.558 5.70623 0
      vertex 37.0562 5.9619 2.8
    endloop
  endfacet
  facet normal -0.707107 -0.707107 0
    outer loop
      vertex 37.9562 5.30801 0
      vertex 37.9562 5.30801 2.8
      vertex 37.558 5.70623 2.8
    endloop
  endfacet
  facet normal -0.707107 -0.707107 0
    outer loop
      vertex 37.558 5.70623 0
      vertex 37.9562 5.30801 0
      vertex 37.558 5.70623 2.8
    endloop
  endfacet
  facet normal -0.891006 -0.453991 0
    outer loop
      vertex 38.2119 4.80623 2.8
      vertex 37.9562 5.30801 2.8
      vertex 38.2119 4.80623 0
    endloop
  endfacet
  facet normal -0.891006 -0.453991 0
    outer loop
      vertex 38.2119 4.80623 0
      vertex 37.9562 5.30801 2.8
      vertex 37.9562 5.30801 0
    endloop
  endfacet
  facet normal -0.987688 -0.156434 0
    outer loop
      vertex 38.3 4.25 2.8
      vertex 38.2119 4.80623 2.8
      vertex 38.3 4.25 0
    endloop
  endfacet
  facet normal -0.987688 -0.156434 0
    outer loop
      vertex 38.3 4.25 0
      vertex 38.2119 4.80623 2.8
      vertex 38.2119 4.80623 0
    endloop
  endfacet
  facet normal -0.987688 0.156434 0
    outer loop
      vertex 38.3 4.25 2.8
      vertex 38.3 4.25 0
      vertex 38.2119 3.69377 2.8
    endloop
  endfacet
  facet normal -0.987688 0.156434 0
    outer loop
      vertex 38.2119 3.69377 2.8
      vertex 38.3 4.25 0
      vertex 38.2119 3.69377 0
    endloop
  endfacet
  facet normal -0.891006 0.453991 0
    outer loop
      vertex 38.2119 3.69377 2.8
      vertex 38.2119 3.69377 0
      vertex 37.9562 3.19199 2.8
    endloop
  endfacet
  facet normal -0.891006 0.453991 0
    outer loop
      vertex 37.9562 3.19199 2.8
      vertex 38.2119 3.69377 0
      vertex 37.9562 3.19199 0
    endloop
  endfacet
  facet normal -0.707107 0.707107 0
    outer loop
      vertex 37.9562 3.19199 2.8
      vertex 37.9562 3.19199 0
      vertex 37.558 2.79377 2.8
    endloop
  endfacet
  facet normal -0.707107 0.707107 0
    outer loop
      vertex 37.558 2.79377 2.8
      vertex 37.9562 3.19199 0
      vertex 37.558 2.79377 0
    endloop
  endfacet
  facet normal -0.453991 0.891006 0
    outer loop
      vertex 37.558 2.79377 2.8
      vertex 37.558 2.79377 0
      vertex 37.0562 2.5381 2.8
    endloop
  endfacet
  facet normal -0.453991 0.891006 0
    outer loop
      vertex 37.0562 2.5381 2.8
      vertex 37.558 2.79377 0
      vertex 37.0562 2.5381 0
    endloop
  endfacet
  facet normal -0.156434 0.987688 0
    outer loop
      vertex 37.0562 2.5381 2.8
      vertex 37.0562 2.5381 0
      vertex 36.5 2.45 2.8
    endloop
  endfacet
  facet normal -0.156434 0.987688 0
    outer loop
      vertex 36.5 2.45 2.8
      vertex 37.0562 2.5381 0
      vertex 36.5 2.45 0
    endloop
  endfacet
  facet normal 0.156434 0.987688 0
    outer loop
      vertex 36.5 2.45 2.8
      vertex 36.5 2.45 0
      vertex 35.9438 2.5381 2.8
    endloop
  endfacet
  facet normal 0.156434 0.987688 0
    outer loop
      vertex 35.9438 2.5381 2.8
      vertex 36.5 2.45 0
      vertex 35.9438 2.5381 0
    endloop
  endfacet
  facet normal 0.453991 0.891006 0
    outer loop
      vertex 35.9438 2.5381 2.8
      vertex 35.9438 2.5381 0
      vertex 35.442 2.79377 2.8
    endloop
  endfacet
  facet normal 0.453991 0.891006 0
    outer loop
      vertex 35.442 2.79377 2.8
      vertex 35.9438 2.5381 0
      vertex 35.442 2.79377 0
    endloop
  endfacet
  facet normal 0.707107 0.707107 0
    outer loop
      vertex 35.442 2.79377 2.8
      vertex 35.442 2.79377 0
      vertex 35.0438 3.19199 2.8
    endloop
  endfacet
  facet normal 0.707107 0.707107 0
    outer loop
      vertex 35.0438 3.19199 2.8
      vertex 35.442 2.79377 0
      vertex 35.0438 3.19199 0
    endloop
  endfacet
  facet normal 0.891006 0.453991 0
    outer loop
      vertex 34.7881 3.69377 2.8
      vertex 35.0438 3.19199 2.8
      vertex 35.0438 3.19199 0
    endloop
  endfacet
  facet normal 0.891006 0.453991 0
    outer loop
      vertex 34.7881 3.69377 0
      vertex 34.7881 3.69377 2.8
      vertex 35.0438 3.19199 0
    endloop
  endfacet
  facet normal 1.92296e-16 2.033e-08 -1
    outer loop
      vertex 8.45 8.5 3.19577
      vertex 8.45 8.75 3.19577
      vertex 15.65 8.5 3.19577
    endloop
  endfacet
  facet normal 1.92296e-16 2.033e-08 -1
    outer loop
      vertex 15.65 8.5 3.19577
      vertex 8.45 8.75 3.19577
      vertex 15.65 8.75 3.19577
    endloop
  endfacet
  facet normal 0.891006 0.453991 0
    outer loop
      vertex 2.69438 3.3384 5.5
      vertex 3.1134 2.51603 5.5
      vertex 3.1134 2.51603 2.8
    endloop
  endfacet
  facet normal 0.891006 0.453991 0
    outer loop
      vertex 2.69438 3.3384 2.8
      vertex 2.69438 3.3384 5.5
      vertex 3.1134 2.51603 2.8
    endloop
  endfacet
  facet normal 0.987688 0.156434 0
    outer loop
      vertex 2.55 4.25 5.5
      vertex 2.69438 3.3384 5.5
      vertex 2.69438 3.3384 2.8
    endloop
  endfacet
  facet normal 0.987688 0.156434 0
    outer loop
      vertex 2.55 4.25 2.8
      vertex 2.55 4.25 5.5
      vertex 2.69438 3.3384 2.8
    endloop
  endfacet
  facet normal 0.707107 0.707107 0
    outer loop
      vertex 3.76603 1.8634 5.5
      vertex 3.76603 1.8634 2.8
      vertex 3.1134 2.51603 5.5
    endloop
  endfacet
  facet normal 0.707107 0.707107 0
    outer loop
      vertex 3.1134 2.51603 5.5
      vertex 3.76603 1.8634 2.8
      vertex 3.1134 2.51603 2.8
    endloop
  endfacet
  facet normal 0.453991 0.891006 0
    outer loop
      vertex 4.5884 1.44438 5.5
      vertex 4.5884 1.44438 2.8
      vertex 3.76603 1.8634 5.5
    endloop
  endfacet
  facet normal 0.453991 0.891006 0
    outer loop
      vertex 3.76603 1.8634 5.5
      vertex 4.5884 1.44438 2.8
      vertex 3.76603 1.8634 2.8
    endloop
  endfacet
  facet normal 0.156434 0.987688 0
    outer loop
      vertex 5.5 1.3 5.5
      vertex 5.5 1.3 2.8
      vertex 4.5884 1.44438 5.5
    endloop
  endfacet
  facet normal 0.156434 0.987688 0
    outer loop
      vertex 4.5884 1.44438 5.5
      vertex 5.5 1.3 2.8
      vertex 4.5884 1.44438 2.8
    endloop
  endfacet
  facet normal -0.156434 0.987688 0
    outer loop
      vertex 6.4116 1.44438 5.5
      vertex 6.4116 1.44438 2.8
      vertex 5.5 1.3 5.5
    endloop
  endfacet
  facet normal -0.156434 0.987688 0
    outer loop
      vertex 5.5 1.3 5.5
      vertex 6.4116 1.44438 2.8
      vertex 5.5 1.3 2.8
    endloop
  endfacet
  facet normal -0.453991 0.891006 0
    outer loop
      vertex 7.23397 1.8634 5.5
      vertex 7.23397 1.8634 2.8
      vertex 6.4116 1.44438 5.5
    endloop
  endfacet
  facet normal -0.453991 0.891006 0
    outer loop
      vertex 6.4116 1.44438 5.5
      vertex 7.23397 1.8634 2.8
      vertex 6.4116 1.44438 2.8
    endloop
  endfacet
  facet normal -0.707107 0.707107 0
    outer loop
      vertex 7.8866 2.51603 5.5
      vertex 7.8866 2.51603 2.8
      vertex 7.23397 1.8634 5.5
    endloop
  endfacet
  facet normal -0.707107 0.707107 0
    outer loop
      vertex 7.23397 1.8634 5.5
      vertex 7.8866 2.51603 2.8
      vertex 7.23397 1.8634 2.8
    endloop
  endfacet
  facet normal -0.891006 0.453991 0
    outer loop
      vertex 8.30562 3.3384 5.5
      vertex 8.30562 3.3384 2.8
      vertex 7.8866 2.51603 5.5
    endloop
  endfacet
  facet normal -0.891006 0.453991 0
    outer loop
      vertex 7.8866 2.51603 5.5
      vertex 8.30562 3.3384 2.8
      vertex 7.8866 2.51603 2.8
    endloop
  endfacet
  facet normal -0.987688 0.156434 0
    outer loop
      vertex 8.45 4.25 5.5
      vertex 8.45 4.25 2.8
      vertex 8.30562 3.3384 5.5
    endloop
  endfacet
  facet normal -0.987688 0.156434 0
    outer loop
      vertex 8.30562 3.3384 5.5
      vertex 8.45 4.25 2.8
      vertex 8.30562 3.3384 2.8
    endloop
  endfacet
  facet normal -0.987688 -0.156434 0
    outer loop
      vertex 8.45 4.25 5.5
      vertex 8.30562 5.1616 5.5
      vertex 8.45 4.25 2.8
    endloop
  endfacet
  facet normal -0.987688 -0.156434 0
    outer loop
      vertex 8.45 4.25 2.8
      vertex 8.30562 5.1616 5.5
      vertex 8.30562 5.1616 2.8
    endloop
  endfacet
  facet normal -0.891006 -0.453991 0
    outer loop
      vertex 8.30562 5.1616 5.5
      vertex 7.8866 5.98397 5.5
      vertex 8.30562 5.1616 2.8
    endloop
  endfacet
  facet normal -0.891006 -0.453991 0
    outer loop
      vertex 8.30562 5.1616 2.8
      vertex 7.8866 5.98397 5.5
      vertex 7.8866 5.98397 2.8
    endloop
  endfacet
  facet normal -0.707107 -0.707107 0
    outer loop
      vertex 7.8866 5.98397 2.8
      vertex 7.8866 5.98397 5.5
      vertex 7.23397 6.6366 5.5
    endloop
  endfacet
  facet normal -0.707107 -0.707107 0
    outer loop
      vertex 7.23397 6.6366 2.8
      vertex 7.8866 5.98397 2.8
      vertex 7.23397 6.6366 5.5
    endloop
  endfacet
  facet normal -0.453991 -0.891006 0
    outer loop
      vertex 7.23397 6.6366 2.8
      vertex 7.23397 6.6366 5.5
      vertex 6.4116 7.05562 5.5
    endloop
  endfacet
  facet normal -0.453991 -0.891006 0
    outer loop
      vertex 6.4116 7.05562 2.8
      vertex 7.23397 6.6366 2.8
      vertex 6.4116 7.05562 5.5
    endloop
  endfacet
  facet normal -0.156434 -0.987688 0
    outer loop
      vertex 6.4116 7.05562 2.8
      vertex 6.4116 7.05562 5.5
      vertex 5.5 7.2 5.5
    endloop
  endfacet
  facet normal -0.156434 -0.987688 0
    outer loop
      vertex 5.5 7.2 2.8
      vertex 6.4116 7.05562 2.8
      vertex 5.5 7.2 5.5
    endloop
  endfacet
  facet normal 0.156434 -0.987688 0
    outer loop
      vertex 5.5 7.2 2.8
      vertex 5.5 7.2 5.5
      vertex 4.5884 7.05562 5.5
    endloop
  endfacet
  facet normal 0.156434 -0.987688 0
    outer loop
      vertex 4.5884 7.05562 2.8
      vertex 5.5 7.2 2.8
      vertex 4.5884 7.05562 5.5
    endloop
  endfacet
  facet normal 0.453991 -0.891006 0
    outer loop
      vertex 4.5884 7.05562 2.8
      vertex 4.5884 7.05562 5.5
      vertex 3.76603 6.6366 5.5
    endloop
  endfacet
  facet normal 0.453991 -0.891006 0
    outer loop
      vertex 3.76603 6.6366 2.8
      vertex 4.5884 7.05562 2.8
      vertex 3.76603 6.6366 5.5
    endloop
  endfacet
  facet normal 0.707107 -0.707107 0
    outer loop
      vertex 3.76603 6.6366 2.8
      vertex 3.76603 6.6366 5.5
      vertex 3.1134 5.98397 5.5
    endloop
  endfacet
  facet normal 0.707107 -0.707107 0
    outer loop
      vertex 3.1134 5.98397 2.8
      vertex 3.76603 6.6366 2.8
      vertex 3.1134 5.98397 5.5
    endloop
  endfacet
  facet normal 0.891006 -0.453991 0
    outer loop
      vertex 3.1134 5.98397 2.8
      vertex 3.1134 5.98397 5.5
      vertex 2.69438 5.1616 5.5
    endloop
  endfacet
  facet normal 0.891006 -0.453991 0
    outer loop
      vertex 2.69438 5.1616 2.8
      vertex 3.1134 5.98397 2.8
      vertex 2.69438 5.1616 5.5
    endloop
  endfacet
  facet normal 0.987688 -0.156434 0
    outer loop
      vertex 2.69438 5.1616 2.8
      vertex 2.69438 5.1616 5.5
      vertex 2.55 4.25 5.5
    endloop
  endfacet
  facet normal 0.987688 -0.156434 0
    outer loop
      vertex 2.55 4.25 2.8
      vertex 2.69438 5.1616 2.8
      vertex 2.55 4.25 5.5
    endloop
  endfacet
  facet normal -1.92296e-16 -0.866025 0.5
    outer loop
      vertex 15.65 -0.25 18.7842
      vertex 8.45 -0.25 18.7842
      vertex 8.45 -4.75 10.99
    endloop
  endfacet
  facet normal -1.92296e-16 -0.866025 0.5
    outer loop
      vertex 15.65 -4.75 10.99
      vertex 15.65 -0.25 18.7842
      vertex 8.45 -4.75 10.99
    endloop
  endfacet
  facet normal 0 -0.866025 -0.5
    outer loop
      vertex 15.65 -4.75 10.99
      vertex 8.45 -4.75 10.99
      vertex 8.45 -0.25 3.19577
    endloop
  endfacet
  facet normal 0 -0.866025 -0.5
    outer loop
      vertex 15.65 -0.25 3.19577
      vertex 15.65 -4.75 10.99
      vertex 8.45 -0.25 3.19577
    endloop
  endfacet
  facet normal 1.92296e-16 0.866025 -0.5
    outer loop
      vertex 8.45 13.25 10.99
      vertex 15.65 13.25 10.99
      vertex 8.45 8.75 3.19577
    endloop
  endfacet
  facet normal 1.92296e-16 0.866025 -0.5
    outer loop
      vertex 8.45 8.75 3.19577
      vertex 15.65 13.25 10.99
      vertex 15.65 8.75 3.19577
    endloop
  endfacet
  facet normal 0 0.866025 0.5
    outer loop
      vertex 8.45 8.75 18.7842
      vertex 15.65 8.75 18.7842
      vertex 8.45 13.25 10.99
    endloop
  endfacet
  facet normal 0 0.866025 0.5
    outer loop
      vertex 8.45 13.25 10.99
      vertex 15.65 8.75 18.7842
      vertex 15.65 13.25 10.99
    endloop
  endfacet
  facet normal -1.92296e-16 -2.033e-08 1
    outer loop
      vertex 8.45 8.75 18.7842
      vertex 8.45 -0.25 18.7842
      vertex 15.65 -0.25 18.7842
    endloop
  endfacet
  facet normal -1.92296e-16 -2.033e-08 1
    outer loop
      vertex 15.65 8.75 18.7842
      vertex 8.45 8.75 18.7842
      vertex 15.65 -0.25 18.7842
    endloop
  endfacet
  facet normal 1.92296e-16 2.53805e-08 -1
    outer loop
      vertex 13.25 6.3125 14.5624
      vertex 13.25 2.1875 14.5624
      vertex 8.45 6.3125 14.5624
    endloop
  endfacet
  facet normal 1.92296e-16 2.53805e-08 -1
    outer loop
      vertex 8.45 6.3125 14.5624
      vertex 13.25 2.1875 14.5624
      vertex 8.45 2.1875 14.5624
    endloop
  endfacet
  facet normal 1.92296e-16 0.866025 -0.5
    outer loop
      vertex 13.25 0.125 10.99
      vertex 8.45 0.125 10.99
      vertex 13.25 2.1875 14.5624
    endloop
  endfacet
  facet normal 1.92296e-16 0.866025 -0.5
    outer loop
      vertex 13.25 2.1875 14.5624
      vertex 8.45 0.125 10.99
      vertex 8.45 2.1875 14.5624
    endloop
  endfacet
  facet normal 0 -0.866025 -0.5
    outer loop
      vertex 8.45 8.375 10.99
      vertex 13.25 8.375 10.99
      vertex 13.25 6.3125 14.5624
    endloop
  endfacet
  facet normal 0 -0.866025 -0.5
    outer loop
      vertex 8.45 6.3125 14.5624
      vertex 8.45 8.375 10.99
      vertex 13.25 6.3125 14.5624
    endloop
  endfacet
  facet normal -1.92296e-16 -0.866025 0.5
    outer loop
      vertex 8.45 6.3125 7.41765
      vertex 13.25 6.3125 7.41765
      vertex 13.25 8.375 10.99
    endloop
  endfacet
  facet normal -1.92296e-16 -0.866025 0.5
    outer loop
      vertex 8.45 8.375 10.99
      vertex 8.45 6.3125 7.41765
      vertex 13.25 8.375 10.99
    endloop
  endfacet
  facet normal -1.92296e-16 -2.53805e-08 1
    outer loop
      vertex 13.25 2.1875 7.41765
      vertex 13.25 6.3125 7.41765
      vertex 8.45 6.3125 7.41765
    endloop
  endfacet
  facet normal -1.92296e-16 -2.53805e-08 1
    outer loop
      vertex 8.45 2.1875 7.41765
      vertex 13.25 2.1875 7.41765
      vertex 8.45 6.3125 7.41765
    endloop
  endfacet
  facet normal 0 0.866025 0.5
    outer loop
      vertex 13.25 2.1875 7.41765
      vertex 8.45 2.1875 7.41765
      vertex 13.25 0.125 10.99
    endloop
  endfacet
  facet normal 0 0.866025 0.5
    outer loop
      vertex 13.25 0.125 10.99
      vertex 8.45 2.1875 7.41765
      vertex 8.45 0.125 10.99
    endloop
  endfacet
  facet normal 2.19311e-16 0.62932 -0.777146
    outer loop
      vertex 15.65 2.65224 12.4286
      vertex 13.25 2.65224 12.4286
      vertex 15.65 3.175 12.852
    endloop
  endfacet
  facet normal 2.19311e-16 0.62932 -0.777146
    outer loop
      vertex 15.65 3.175 12.852
      vertex 13.25 2.65224 12.4286
      vertex 13.25 3.175 12.852
    endloop
  endfacet
  facet normal 1.97843e-16 0.838671 -0.544639
    outer loop
      vertex 15.65 2.28588 11.8645
      vertex 13.25 2.28588 11.8645
      vertex 15.65 2.65224 12.4286
    endloop
  endfacet
  facet normal 1.97843e-16 0.838671 -0.544639
    outer loop
      vertex 15.65 2.65224 12.4286
      vertex 13.25 2.28588 11.8645
      vertex 13.25 2.65224 12.4286
    endloop
  endfacet
  facet normal 1.57009e-16 0.965926 -0.258819
    outer loop
      vertex 15.65 2.11178 11.2147
      vertex 13.25 2.11178 11.2147
      vertex 15.65 2.28588 11.8645
    endloop
  endfacet
  facet normal 1.57009e-16 0.965926 -0.258819
    outer loop
      vertex 15.65 2.28588 11.8645
      vertex 13.25 2.11178 11.2147
      vertex 13.25 2.28588 11.8645
    endloop
  endfacet
  facet normal 1.00806e-16 0.99863 0.0523354
    outer loop
      vertex 15.65 2.14698 10.543
      vertex 13.25 2.14698 10.543
      vertex 15.65 2.11178 11.2147
    endloop
  endfacet
  facet normal 1.00806e-16 0.99863 0.0523354
    outer loop
      vertex 15.65 2.11178 11.2147
      vertex 13.25 2.14698 10.543
      vertex 13.25 2.11178 11.2147
    endloop
  endfacet
  facet normal 3.47352e-17 0.93358 0.358369
    outer loop
      vertex 15.65 2.38805 9.915
      vertex 13.25 2.38805 9.915
      vertex 15.65 2.14698 10.543
    endloop
  endfacet
  facet normal 3.47352e-17 0.93358 0.358369
    outer loop
      vertex 15.65 2.14698 10.543
      vertex 13.25 2.38805 9.915
      vertex 13.25 2.14698 10.543
    endloop
  endfacet
  facet normal -3.47352e-17 0.777146 0.62932
    outer loop
      vertex 15.65 2.81137 9.39224
      vertex 13.25 2.81137 9.39224
      vertex 15.65 2.38805 9.915
    endloop
  endfacet
  facet normal -3.47352e-17 0.777146 0.62932
    outer loop
      vertex 15.65 2.38805 9.915
      vertex 13.25 2.81137 9.39224
      vertex 13.25 2.38805 9.915
    endloop
  endfacet
  facet normal -1.00806e-16 0.544639 0.838671
    outer loop
      vertex 15.65 2.81137 9.39224
      vertex 15.65 3.37552 9.02588
      vertex 13.25 3.37552 9.02588
    endloop
  endfacet
  facet normal -1.00806e-16 0.544639 0.838671
    outer loop
      vertex 13.25 2.81137 9.39224
      vertex 15.65 2.81137 9.39224
      vertex 13.25 3.37552 9.02588
    endloop
  endfacet
  facet normal -1.57009e-16 0.258819 0.965926
    outer loop
      vertex 15.65 3.37552 9.02588
      vertex 15.65 4.02526 8.85178
      vertex 13.25 4.02526 8.85178
    endloop
  endfacet
  facet normal -1.57009e-16 0.258819 0.965926
    outer loop
      vertex 13.25 3.37552 9.02588
      vertex 15.65 3.37552 9.02588
      vertex 13.25 4.02526 8.85178
    endloop
  endfacet
  facet normal -1.97843e-16 -0.0523354 0.99863
    outer loop
      vertex 15.65 4.02526 8.85178
      vertex 15.65 4.69701 8.88698
      vertex 13.25 4.69701 8.88698
    endloop
  endfacet
  facet normal -1.97843e-16 -0.0523354 0.99863
    outer loop
      vertex 13.25 4.02526 8.85178
      vertex 15.65 4.02526 8.85178
      vertex 13.25 4.69701 8.88698
    endloop
  endfacet
  facet normal -2.19311e-16 -0.358369 0.93358
    outer loop
      vertex 15.65 4.69701 8.88698
      vertex 15.65 5.325 9.12805
      vertex 13.25 5.325 9.12805
    endloop
  endfacet
  facet normal -2.19311e-16 -0.358369 0.93358
    outer loop
      vertex 13.25 4.69701 8.88698
      vertex 15.65 4.69701 8.88698
      vertex 13.25 5.325 9.12805
    endloop
  endfacet
  facet normal -2.19311e-16 -0.62932 0.777146
    outer loop
      vertex 13.25 5.325 9.12805
      vertex 15.65 5.325 9.12805
      vertex 15.65 5.84776 9.55137
    endloop
  endfacet
  facet normal -2.19311e-16 -0.62932 0.777146
    outer loop
      vertex 13.25 5.84776 9.55137
      vertex 13.25 5.325 9.12805
      vertex 15.65 5.84776 9.55137
    endloop
  endfacet
  facet normal -1.97843e-16 -0.838671 0.544639
    outer loop
      vertex 13.25 5.84776 9.55137
      vertex 15.65 5.84776 9.55137
      vertex 15.65 6.21412 10.1155
    endloop
  endfacet
  facet normal -1.97843e-16 -0.838671 0.544639
    outer loop
      vertex 13.25 6.21412 10.1155
      vertex 13.25 5.84776 9.55137
      vertex 15.65 6.21412 10.1155
    endloop
  endfacet
  facet normal -1.57009e-16 -0.965926 0.258819
    outer loop
      vertex 13.25 6.21412 10.1155
      vertex 15.65 6.21412 10.1155
      vertex 15.65 6.38822 10.7653
    endloop
  endfacet
  facet normal -1.57009e-16 -0.965926 0.258819
    outer loop
      vertex 13.25 6.38822 10.7653
      vertex 13.25 6.21412 10.1155
      vertex 15.65 6.38822 10.7653
    endloop
  endfacet
  facet normal -1.00806e-16 -0.99863 -0.0523354
    outer loop
      vertex 13.25 6.38822 10.7653
      vertex 15.65 6.38822 10.7653
      vertex 15.65 6.35302 11.437
    endloop
  endfacet
  facet normal -1.00806e-16 -0.99863 -0.0523354
    outer loop
      vertex 13.25 6.35302 11.437
      vertex 13.25 6.38822 10.7653
      vertex 15.65 6.35302 11.437
    endloop
  endfacet
  facet normal -3.47352e-17 -0.93358 -0.358369
    outer loop
      vertex 13.25 6.35302 11.437
      vertex 15.65 6.35302 11.437
      vertex 15.65 6.11195 12.065
    endloop
  endfacet
  facet normal -3.47352e-17 -0.93358 -0.358369
    outer loop
      vertex 13.25 6.11195 12.065
      vertex 13.25 6.35302 11.437
      vertex 15.65 6.11195 12.065
    endloop
  endfacet
  facet normal 3.47352e-17 -0.777146 -0.62932
    outer loop
      vertex 13.25 6.11195 12.065
      vertex 15.65 6.11195 12.065
      vertex 15.65 5.68863 12.5878
    endloop
  endfacet
  facet normal 3.47352e-17 -0.777146 -0.62932
    outer loop
      vertex 13.25 5.68863 12.5878
      vertex 13.25 6.11195 12.065
      vertex 15.65 5.68863 12.5878
    endloop
  endfacet
  facet normal 1.00806e-16 -0.544639 -0.838671
    outer loop
      vertex 15.65 5.68863 12.5878
      vertex 15.65 5.12448 12.9541
      vertex 13.25 5.68863 12.5878
    endloop
  endfacet
  facet normal 1.00806e-16 -0.544639 -0.838671
    outer loop
      vertex 13.25 5.68863 12.5878
      vertex 15.65 5.12448 12.9541
      vertex 13.25 5.12448 12.9541
    endloop
  endfacet
  facet normal 1.57009e-16 -0.258819 -0.965926
    outer loop
      vertex 15.65 5.12448 12.9541
      vertex 15.65 4.47474 13.1282
      vertex 13.25 5.12448 12.9541
    endloop
  endfacet
  facet normal 1.57009e-16 -0.258819 -0.965926
    outer loop
      vertex 13.25 5.12448 12.9541
      vertex 15.65 4.47474 13.1282
      vertex 13.25 4.47474 13.1282
    endloop
  endfacet
  facet normal 1.97843e-16 0.0523354 -0.99863
    outer loop
      vertex 15.65 4.47474 13.1282
      vertex 15.65 3.80299 13.093
      vertex 13.25 4.47474 13.1282
    endloop
  endfacet
  facet normal 1.97843e-16 0.0523354 -0.99863
    outer loop
      vertex 13.25 4.47474 13.1282
      vertex 15.65 3.80299 13.093
      vertex 13.25 3.80299 13.093
    endloop
  endfacet
  facet normal 2.19311e-16 0.358369 -0.93358
    outer loop
      vertex 15.65 3.80299 13.093
      vertex 15.65 3.175 12.852
      vertex 13.25 3.80299 13.093
    endloop
  endfacet
  facet normal 2.19311e-16 0.358369 -0.93358
    outer loop
      vertex 13.25 3.80299 13.093
      vertex 15.65 3.175 12.852
      vertex 13.25 3.175 12.852
    endloop
  endfacet
  facet normal 0.987688 0.156434 0
    outer loop
      vertex 33.55 4.25 5.5
      vertex 33.6944 3.3384 5.5
      vertex 33.6944 3.3384 2.8
    endloop
  endfacet
  facet normal 0.987688 0.156434 0
    outer loop
      vertex 33.55 4.25 2.8
      vertex 33.55 4.25 5.5
      vertex 33.6944 3.3384 2.8
    endloop
  endfacet
  facet normal 0.891006 0.453991 0
    outer loop
      vertex 33.6944 3.3384 5.5
      vertex 34.1134 2.51603 5.5
      vertex 34.1134 2.51603 2.8
    endloop
  endfacet
  facet normal 0.891006 0.453991 0
    outer loop
      vertex 33.6944 3.3384 2.8
      vertex 33.6944 3.3384 5.5
      vertex 34.1134 2.51603 2.8
    endloop
  endfacet
  facet normal 0.707107 0.707107 0
    outer loop
      vertex 34.766 1.8634 5.5
      vertex 34.766 1.8634 2.8
      vertex 34.1134 2.51603 5.5
    endloop
  endfacet
  facet normal 0.707107 0.707107 0
    outer loop
      vertex 34.1134 2.51603 5.5
      vertex 34.766 1.8634 2.8
      vertex 34.1134 2.51603 2.8
    endloop
  endfacet
  facet normal 0.453991 0.891006 0
    outer loop
      vertex 35.5884 1.44438 5.5
      vertex 35.5884 1.44438 2.8
      vertex 34.766 1.8634 5.5
    endloop
  endfacet
  facet normal 0.453991 0.891006 0
    outer loop
      vertex 34.766 1.8634 5.5
      vertex 35.5884 1.44438 2.8
      vertex 34.766 1.8634 2.8
    endloop
  endfacet
  facet normal 0.156434 0.987688 0
    outer loop
      vertex 36.5 1.3 5.5
      vertex 36.5 1.3 2.8
      vertex 35.5884 1.44438 5.5
    endloop
  endfacet
  facet normal 0.156434 0.987688 0
    outer loop
      vertex 35.5884 1.44438 5.5
      vertex 36.5 1.3 2.8
      vertex 35.5884 1.44438 2.8
    endloop
  endfacet
  facet normal -0.156434 0.987688 0
    outer loop
      vertex 37.4116 1.44438 5.5
      vertex 37.4116 1.44438 2.8
      vertex 36.5 1.3 5.5
    endloop
  endfacet
  facet normal -0.156434 0.987688 0
    outer loop
      vertex 36.5 1.3 5.5
      vertex 37.4116 1.44438 2.8
      vertex 36.5 1.3 2.8
    endloop
  endfacet
  facet normal -0.453991 0.891006 0
    outer loop
      vertex 38.234 1.8634 5.5
      vertex 38.234 1.8634 2.8
      vertex 37.4116 1.44438 5.5
    endloop
  endfacet
  facet normal -0.453991 0.891006 0
    outer loop
      vertex 37.4116 1.44438 5.5
      vertex 38.234 1.8634 2.8
      vertex 37.4116 1.44438 2.8
    endloop
  endfacet
  facet normal -0.707107 0.707107 0
    outer loop
      vertex 38.8866 2.51603 5.5
      vertex 38.8866 2.51603 2.8
      vertex 38.234 1.8634 5.5
    endloop
  endfacet
  facet normal -0.707107 0.707107 0
    outer loop
      vertex 38.234 1.8634 5.5
      vertex 38.8866 2.51603 2.8
      vertex 38.234 1.8634 2.8
    endloop
  endfacet
  facet normal -0.891006 0.453991 0
    outer loop
      vertex 39.3056 3.3384 5.5
      vertex 39.3056 3.3384 2.8
      vertex 38.8866 2.51603 5.5
    endloop
  endfacet
  facet normal -0.891006 0.453991 0
    outer loop
      vertex 38.8866 2.51603 5.5
      vertex 39.3056 3.3384 2.8
      vertex 38.8866 2.51603 2.8
    endloop
  endfacet
  facet normal -0.987688 0.156434 0
    outer loop
      vertex 39.45 4.25 5.5
      vertex 39.45 4.25 2.8
      vertex 39.3056 3.3384 5.5
    endloop
  endfacet
  facet normal -0.987688 0.156434 0
    outer loop
      vertex 39.3056 3.3384 5.5
      vertex 39.45 4.25 2.8
      vertex 39.3056 3.3384 2.8
    endloop
  endfacet
  facet normal -0.987688 -0.156434 0
    outer loop
      vertex 39.45 4.25 5.5
      vertex 39.3056 5.1616 5.5
      vertex 39.45 4.25 2.8
    endloop
  endfacet
  facet normal -0.987688 -0.156434 0
    outer loop
      vertex 39.45 4.25 2.8
      vertex 39.3056 5.1616 5.5
      vertex 39.3056 5.1616 2.8
    endloop
  endfacet
  facet normal -0.891006 -0.453991 0
    outer loop
      vertex 39.3056 5.1616 5.5
      vertex 38.8866 5.98397 5.5
      vertex 39.3056 5.1616 2.8
    endloop
  endfacet
  facet normal -0.891006 -0.453991 0
    outer loop
      vertex 39.3056 5.1616 2.8
      vertex 38.8866 5.98397 5.5
      vertex 38.8866 5.98397 2.8
    endloop
  endfacet
  facet normal -0.707107 -0.707107 0
    outer loop
      vertex 38.8866 5.98397 2.8
      vertex 38.8866 5.98397 5.5
      vertex 38.234 6.6366 5.5
    endloop
  endfacet
  facet normal -0.707107 -0.707107 0
    outer loop
      vertex 38.234 6.6366 2.8
      vertex 38.8866 5.98397 2.8
      vertex 38.234 6.6366 5.5
    endloop
  endfacet
  facet normal -0.453991 -0.891006 0
    outer loop
      vertex 38.234 6.6366 2.8
      vertex 38.234 6.6366 5.5
      vertex 37.4116 7.05562 5.5
    endloop
  endfacet
  facet normal -0.453991 -0.891006 0
    outer loop
      vertex 37.4116 7.05562 2.8
      vertex 38.234 6.6366 2.8
      vertex 37.4116 7.05562 5.5
    endloop
  endfacet
  facet normal -0.156434 -0.987688 0
    outer loop
      vertex 37.4116 7.05562 2.8
      vertex 37.4116 7.05562 5.5
      vertex 36.5 7.2 5.5
    endloop
  endfacet
  facet normal -0.156434 -0.987688 0
    outer loop
      vertex 36.5 7.2 2.8
      vertex 37.4116 7.05562 2.8
      vertex 36.5 7.2 5.5
    endloop
  endfacet
  facet normal 0.156434 -0.987688 0
    outer loop
      vertex 36.5 7.2 2.8
      vertex 36.5 7.2 5.5
      vertex 35.5884 7.05562 5.5
    endloop
  endfacet
  facet normal 0.156434 -0.987688 0
    outer loop
      vertex 35.5884 7.05562 2.8
      vertex 36.5 7.2 2.8
      vertex 35.5884 7.05562 5.5
    endloop
  endfacet
  facet normal 0.453991 -0.891006 0
    outer loop
      vertex 35.5884 7.05562 2.8
      vertex 35.5884 7.05562 5.5
      vertex 34.766 6.6366 5.5
    endloop
  endfacet
  facet normal 0.453991 -0.891006 0
    outer loop
      vertex 34.766 6.6366 2.8
      vertex 35.5884 7.05562 2.8
      vertex 34.766 6.6366 5.5
    endloop
  endfacet
  facet normal 0.707107 -0.707107 0
    outer loop
      vertex 34.766 6.6366 2.8
      vertex 34.766 6.6366 5.5
      vertex 34.1134 5.98397 5.5
    endloop
  endfacet
  facet normal 0.707107 -0.707107 0
    outer loop
      vertex 34.1134 5.98397 2.8
      vertex 34.766 6.6366 2.8
      vertex 34.1134 5.98397 5.5
    endloop
  endfacet
  facet normal 0.891006 -0.453991 0
    outer loop
      vertex 34.1134 5.98397 2.8
      vertex 34.1134 5.98397 5.5
      vertex 33.6944 5.1616 5.5
    endloop
  endfacet
  facet normal 0.891006 -0.453991 0
    outer loop
      vertex 33.6944 5.1616 2.8
      vertex 34.1134 5.98397 2.8
      vertex 33.6944 5.1616 5.5
    endloop
  endfacet
  facet normal 0.987688 -0.156434 0
    outer loop
      vertex 33.6944 5.1616 2.8
      vertex 33.6944 5.1616 5.5
      vertex 33.55 4.25 5.5
    endloop
  endfacet
  facet normal 0.987688 -0.156434 0
    outer loop
      vertex 33.55 4.25 2.8
      vertex 33.6944 5.1616 2.8
      vertex 33.55 4.25 5.5
    endloop
  endfacet
  facet normal 0 0 1
    outer loop
      vertex 2.69438 3.3384 2.8
      vertex 3.1134 2.51603 2.8
      vertex 3.76603 1.8634 2.8
    endloop
  endfacet
  facet normal 0 0 1
    outer loop
      vertex 5.5 1.3 2.8
      vertex 2.69438 3.3384 2.8
      vertex 4.5884 1.44438 2.8
    endloop
  endfacet
  facet normal 0 0 1
    outer loop
      vertex 4.5884 1.44438 2.8
      vertex 2.69438 3.3384 2.8
      vertex 3.76603 1.8634 2.8
    endloop
  endfacet
  facet normal 0 0 1
    outer loop
      vertex 6.4116 1.44438 2.8
      vertex 2.69438 3.3384 2.8
      vertex 5.5 1.3 2.8
    endloop
  endfacet
  facet normal 0 0 1
    outer loop
      vertex 4.94377 2.5381 2.8
      vertex 2.69438 3.3384 2.8
      vertex 6.4116 1.44438 2.8
    endloop
  endfacet
  facet normal 0 0 1
    outer loop
      vertex 4.94377 2.5381 2.8
      vertex 4.44199 2.79377 2.8
      vertex 2.69438 3.3384 2.8
    endloop
  endfacet
  facet normal 0 0 1
    outer loop
      vertex 5.5 2.45 2.8
      vertex 4.94377 2.5381 2.8
      vertex 7.23397 1.8634 2.8
    endloop
  endfacet
  facet normal 0 0 1
    outer loop
      vertex 6.55801 2.79377 2.8
      vertex 6.05623 2.5381 2.8
      vertex 7.8866 2.51603 2.8
    endloop
  endfacet
  facet normal 0 0 1
    outer loop
      vertex 7.2119 3.69377 2.8
      vertex 6.95623 3.19199 2.8
      vertex 8.30562 3.3384 2.8
    endloop
  endfacet
  facet normal 0 0 1
    outer loop
      vertex 4.94377 5.9619 2.8
      vertex 5.5 6.05 2.8
      vertex 6.4116 7.05562 2.8
    endloop
  endfacet
  facet normal 0 0 1
    outer loop
      vertex 6.05623 5.9619 2.8
      vertex 6.55801 5.70623 2.8
      vertex 7.23397 6.6366 2.8
    endloop
  endfacet
  facet normal 0 0 1
    outer loop
      vertex 3.76603 6.6366 2.8
      vertex 2.69438 3.3384 2.8
      vertex 4.5884 7.05562 2.8
    endloop
  endfacet
  facet normal 0 0 1
    outer loop
      vertex 3.1134 5.98397 2.8
      vertex 2.69438 3.3384 2.8
      vertex 3.76603 6.6366 2.8
    endloop
  endfacet
  facet normal 0 0 1
    outer loop
      vertex 2.69438 5.1616 2.8
      vertex 2.69438 3.3384 2.8
      vertex 3.1134 5.98397 2.8
    endloop
  endfacet
  facet normal 0 0 1
    outer loop
      vertex 2.55 4.25 2.8
      vertex 2.69438 3.3384 2.8
      vertex 2.69438 5.1616 2.8
    endloop
  endfacet
  facet normal 0 0 1
    outer loop
      vertex 6.55801 5.70623 2.8
      vertex 6.95623 5.30801 2.8
      vertex 7.8866 5.98397 2.8
    endloop
  endfacet
  facet normal 0 0 1
    outer loop
      vertex 3.7881 4.80623 2.8
      vertex 4.04377 5.30801 2.8
      vertex 2.69438 3.3384 2.8
    endloop
  endfacet
  facet normal 0 0 1
    outer loop
      vertex 4.44199 2.79377 2.8
      vertex 4.04377 3.19199 2.8
      vertex 2.69438 3.3384 2.8
    endloop
  endfacet
  facet normal 0 0 1
    outer loop
      vertex 4.04377 5.30801 2.8
      vertex 4.44199 5.70623 2.8
      vertex 5.5 7.2 2.8
    endloop
  endfacet
  facet normal 0 0 1
    outer loop
      vertex 4.5884 7.05562 2.8
      vertex 4.04377 5.30801 2.8
      vertex 5.5 7.2 2.8
    endloop
  endfacet
  facet normal 0 0 1
    outer loop
      vertex 4.5884 7.05562 2.8
      vertex 2.69438 3.3384 2.8
      vertex 4.04377 5.30801 2.8
    endloop
  endfacet
  facet normal 0 0 1
    outer loop
      vertex 5.5 7.2 2.8
      vertex 4.44199 5.70623 2.8
      vertex 6.4116 7.05562 2.8
    endloop
  endfacet
  facet normal 0 0 1
    outer loop
      vertex 4.44199 5.70623 2.8
      vertex 4.94377 5.9619 2.8
      vertex 6.4116 7.05562 2.8
    endloop
  endfacet
  facet normal 0 0 1
    outer loop
      vertex 6.4116 7.05562 2.8
      vertex 5.5 6.05 2.8
      vertex 7.23397 6.6366 2.8
    endloop
  endfacet
  facet normal 0 0 1
    outer loop
      vertex 5.5 6.05 2.8
      vertex 6.05623 5.9619 2.8
      vertex 7.23397 6.6366 2.8
    endloop
  endfacet
  facet normal 0 0 1
    outer loop
      vertex 7.23397 6.6366 2.8
      vertex 6.55801 5.70623 2.8
      vertex 7.8866 5.98397 2.8
    endloop
  endfacet
  facet normal 0 0 1
    outer loop
      vertex 3.7 4.25 2.8
      vertex 3.7881 4.80623 2.8
      vertex 2.69438 3.3384 2.8
    endloop
  endfacet
  facet normal 0 0 1
    outer loop
      vertex 7.8866 5.98397 2.8
      vertex 6.95623 5.30801 2.8
      vertex 8.30562 5.1616 2.8
    endloop
  endfacet
  facet normal 0 0 1
    outer loop
      vertex 4.04377 3.19199 2.8
      vertex 3.7881 3.69377 2.8
      vertex 2.69438 3.3384 2.8
    endloop
  endfacet
  facet normal 0 0 1
    outer loop
      vertex 6.95623 5.30801 2.8
      vertex 7.2119 4.80623 2.8
      vertex 8.30562 5.1616 2.8
    endloop
  endfacet
  facet normal 0 0 1
    outer loop
      vertex 8.30562 5.1616 2.8
      vertex 7.3 4.25 2.8
      vertex 8.45 4.25 2.8
    endloop
  endfacet
  facet normal 0 0 1
    outer loop
      vertex 8.45 4.25 2.8
      vertex 7.2119 3.69377 2.8
      vertex 8.30562 3.3384 2.8
    endloop
  endfacet
  facet normal 0 0 1
    outer loop
      vertex 8.30562 3.3384 2.8
      vertex 6.95623 3.19199 2.8
      vertex 7.8866 2.51603 2.8
    endloop
  endfacet
  facet normal 0 0 1
    outer loop
      vertex 6.95623 3.19199 2.8
      vertex 6.55801 2.79377 2.8
      vertex 7.8866 2.51603 2.8
    endloop
  endfacet
  facet normal 0 0 1
    outer loop
      vertex 7.8866 2.51603 2.8
      vertex 6.05623 2.5381 2.8
      vertex 7.23397 1.8634 2.8
    endloop
  endfacet
  facet normal 0 0 1
    outer loop
      vertex 6.05623 2.5381 2.8
      vertex 5.5 2.45 2.8
      vertex 7.23397 1.8634 2.8
    endloop
  endfacet
  facet normal 0 0 1
    outer loop
      vertex 7.23397 1.8634 2.8
      vertex 4.94377 2.5381 2.8
      vertex 6.4116 1.44438 2.8
    endloop
  endfacet
  facet normal 0 0 1
    outer loop
      vertex 7.2119 4.80623 2.8
      vertex 7.3 4.25 2.8
      vertex 8.30562 5.1616 2.8
    endloop
  endfacet
  facet normal 0 0 1
    outer loop
      vertex 7.3 4.25 2.8
      vertex 7.2119 3.69377 2.8
      vertex 8.45 4.25 2.8
    endloop
  endfacet
  facet normal 0 0 1
    outer loop
      vertex 3.7881 3.69377 2.8
      vertex 3.7 4.25 2.8
      vertex 2.69438 3.3384 2.8
    endloop
  endfacet
  facet normal 0 0 1
    outer loop
      vertex 33.6944 3.3384 2.8
      vertex 34.1134 2.51603 2.8
      vertex 34.766 1.8634 2.8
    endloop
  endfacet
  facet normal 0 0 1
    outer loop
      vertex 36.5 1.3 2.8
      vertex 33.6944 3.3384 2.8
      vertex 35.5884 1.44438 2.8
    endloop
  endfacet
  facet normal 0 0 1
    outer loop
      vertex 35.5884 1.44438 2.8
      vertex 33.6944 3.3384 2.8
      vertex 34.766 1.8634 2.8
    endloop
  endfacet
  facet normal 0 0 1
    outer loop
      vertex 37.4116 1.44438 2.8
      vertex 33.6944 3.3384 2.8
      vertex 36.5 1.3 2.8
    endloop
  endfacet
  facet normal 0 0 1
    outer loop
      vertex 35.9438 2.5381 2.8
      vertex 33.6944 3.3384 2.8
      vertex 37.4116 1.44438 2.8
    endloop
  endfacet
  facet normal 0 0 1
    outer loop
      vertex 35.9438 2.5381 2.8
      vertex 35.442 2.79377 2.8
      vertex 33.6944 3.3384 2.8
    endloop
  endfacet
  facet normal 0 0 1
    outer loop
      vertex 36.5 2.45 2.8
      vertex 35.9438 2.5381 2.8
      vertex 38.234 1.8634 2.8
    endloop
  endfacet
  facet normal 0 0 1
    outer loop
      vertex 37.558 2.79377 2.8
      vertex 37.0562 2.5381 2.8
      vertex 38.8866 2.51603 2.8
    endloop
  endfacet
  facet normal 0 0 1
    outer loop
      vertex 38.2119 3.69377 2.8
      vertex 37.9562 3.19199 2.8
      vertex 39.3056 3.3384 2.8
    endloop
  endfacet
  facet normal 0 0 1
    outer loop
      vertex 35.9438 5.9619 2.8
      vertex 36.5 6.05 2.8
      vertex 37.4116 7.05562 2.8
    endloop
  endfacet
  facet normal 0 0 1
    outer loop
      vertex 37.0562 5.9619 2.8
      vertex 37.558 5.70623 2.8
      vertex 38.234 6.6366 2.8
    endloop
  endfacet
  facet normal 0 0 1
    outer loop
      vertex 34.766 6.6366 2.8
      vertex 33.6944 3.3384 2.8
      vertex 35.5884 7.05562 2.8
    endloop
  endfacet
  facet normal 0 0 1
    outer loop
      vertex 34.1134 5.98397 2.8
      vertex 33.6944 3.3384 2.8
      vertex 34.766 6.6366 2.8
    endloop
  endfacet
  facet normal 0 0 1
    outer loop
      vertex 33.6944 5.1616 2.8
      vertex 33.6944 3.3384 2.8
      vertex 34.1134 5.98397 2.8
    endloop
  endfacet
  facet normal 0 0 1
    outer loop
      vertex 33.55 4.25 2.8
      vertex 33.6944 3.3384 2.8
      vertex 33.6944 5.1616 2.8
    endloop
  endfacet
  facet normal 0 0 1
    outer loop
      vertex 37.558 5.70623 2.8
      vertex 37.9562 5.30801 2.8
      vertex 38.8866 5.98397 2.8
    endloop
  endfacet
  facet normal 0 0 1
    outer loop
      vertex 34.7881 4.80623 2.8
      vertex 35.0438 5.30801 2.8
      vertex 33.6944 3.3384 2.8
    endloop
  endfacet
  facet normal 0 0 1
    outer loop
      vertex 35.442 2.79377 2.8
      vertex 35.0438 3.19199 2.8
      vertex 33.6944 3.3384 2.8
    endloop
  endfacet
  facet normal 0 0 1
    outer loop
      vertex 35.0438 5.30801 2.8
      vertex 35.442 5.70623 2.8
      vertex 36.5 7.2 2.8
    endloop
  endfacet
  facet normal 0 0 1
    outer loop
      vertex 35.5884 7.05562 2.8
      vertex 35.0438 5.30801 2.8
      vertex 36.5 7.2 2.8
    endloop
  endfacet
  facet normal 0 0 1
    outer loop
      vertex 35.5884 7.05562 2.8
      vertex 33.6944 3.3384 2.8
      vertex 35.0438 5.30801 2.8
    endloop
  endfacet
  facet normal 0 0 1
    outer loop
      vertex 36.5 7.2 2.8
      vertex 35.442 5.70623 2.8
      vertex 37.4116 7.05562 2.8
    endloop
  endfacet
  facet normal 0 0 1
    outer loop
      vertex 35.442 5.70623 2.8
      vertex 35.9438 5.9619 2.8
      vertex 37.4116 7.05562 2.8
    endloop
  endfacet
  facet normal 0 0 1
    outer loop
      vertex 37.4116 7.05562 2.8
      vertex 36.5 6.05 2.8
      vertex 38.234 6.6366 2.8
    endloop
  endfacet
  facet normal 0 0 1
    outer loop
      vertex 36.5 6.05 2.8
      vertex 37.0562 5.9619 2.8
      vertex 38.234 6.6366 2.8
    endloop
  endfacet
  facet normal 0 0 1
    outer loop
      vertex 38.234 6.6366 2.8
      vertex 37.558 5.70623 2.8
      vertex 38.8866 5.98397 2.8
    endloop
  endfacet
  facet normal 0 0 1
    outer loop
      vertex 34.7 4.25 2.8
      vertex 34.7881 4.80623 2.8
      vertex 33.6944 3.3384 2.8
    endloop
  endfacet
  facet normal 0 0 1
    outer loop
      vertex 38.8866 5.98397 2.8
      vertex 37.9562 5.30801 2.8
      vertex 39.3056 5.1616 2.8
    endloop
  endfacet
  facet normal 0 0 1
    outer loop
      vertex 35.0438 3.19199 2.8
      vertex 34.7881 3.69377 2.8
      vertex 33.6944 3.3384 2.8
    endloop
  endfacet
  facet normal 0 0 1
    outer loop
      vertex 37.9562 5.30801 2.8
      vertex 38.2119 4.80623 2.8
      vertex 39.3056 5.1616 2.8
    endloop
  endfacet
  facet normal 0 0 1
    outer loop
      vertex 39.3056 5.1616 2.8
      vertex 38.3 4.25 2.8
      vertex 39.45 4.25 2.8
    endloop
  endfacet
  facet normal 0 0 1
    outer loop
      vertex 39.45 4.25 2.8
      vertex 38.2119 3.69377 2.8
      vertex 39.3056 3.3384 2.8
    endloop
  endfacet
  facet normal 0 0 1
    outer loop
      vertex 39.3056 3.3384 2.8
      vertex 37.9562 3.19199 2.8
      vertex 38.8866 2.51603 2.8
    endloop
  endfacet
  facet normal 0 0 1
    outer loop
      vertex 37.9562 3.19199 2.8
      vertex 37.558 2.79377 2.8
      vertex 38.8866 2.51603 2.8
    endloop
  endfacet
  facet normal 0 0 1
    outer loop
      vertex 38.8866 2.51603 2.8
      vertex 37.0562 2.5381 2.8
      vertex 38.234 1.8634 2.8
    endloop
  endfacet
  facet normal 0 0 1
    outer loop
      vertex 37.0562 2.5381 2.8
      vertex 36.5 2.45 2.8
      vertex 38.234 1.8634 2.8
    endloop
  endfacet
  facet normal 0 0 1
    outer loop
      vertex 38.234 1.8634 2.8
      vertex 35.9438 2.5381 2.8
      vertex 37.4116 1.44438 2.8
    endloop
  endfacet
  facet normal 0 0 1
    outer loop
      vertex 38.2119 4.80623 2.8
      vertex 38.3 4.25 2.8
      vertex 39.3056 5.1616 2.8
    endloop
  endfacet
  facet normal 0 0 1
    outer loop
      vertex 38.3 4.25 2.8
      vertex 38.2119 3.69377 2.8
      vertex 39.45 4.25 2.8
    endloop
  endfacet
  facet normal 0 0 1
    outer loop
      vertex 34.7881 3.69377 2.8
      vertex 34.7 4.25 2.8
      vertex 33.6944 3.3384 2.8
    endloop
  endfacet
  facet normal -1 1.11022e-16 -1.92296e-16
    outer loop
      vertex 13.25 3.37552 9.02588
      vertex 13.25 6.3125 7.41765
      vertex 13.25 2.1875 7.41765
    endloop
  endfacet
  facet normal -1 1.11022e-16 -1.92296e-16
    outer loop
      vertex 13.25 2.11178 11.2147
      vertex 13.25 2.1875 7.41765
      vertex 13.25 0.125 10.99
    endloop
  endfacet
  facet normal -1 1.11022e-16 -1.92296e-16
    outer loop
      vertex 13.25 3.175 12.852
      vertex 13.25 0.125 10.99
      vertex 13.25 2.1875 14.5624
    endloop
  endfacet
  facet normal -1 1.11022e-16 -1.92296e-16
    outer loop
      vertex 13.25 3.37552 9.02588
      vertex 13.25 2.1875 7.41765
      vertex 13.25 2.81137 9.39224
    endloop
  endfacet
  facet normal -1 1.11022e-16 -1.92296e-16
    outer loop
      vertex 13.25 2.38805 9.915
      vertex 13.25 2.1875 7.41765
      vertex 13.25 2.14698 10.543
    endloop
  endfacet
  facet normal -1 1.11022e-16 -1.92296e-16
    outer loop
      vertex 13.25 2.81137 9.39224
      vertex 13.25 2.1875 7.41765
      vertex 13.25 2.38805 9.915
    endloop
  endfacet
  facet normal -1 1.11022e-16 -1.92296e-16
    outer loop
      vertex 13.25 2.65224 12.4286
      vertex 13.25 2.28588 11.8645
      vertex 13.25 0.125 10.99
    endloop
  endfacet
  facet normal -1 1.11022e-16 -1.92296e-16
    outer loop
      vertex 13.25 2.14698 10.543
      vertex 13.25 2.1875 7.41765
      vertex 13.25 2.11178 11.2147
    endloop
  endfacet
  facet normal -1 1.11022e-16 -1.92296e-16
    outer loop
      vertex 13.25 2.28588 11.8645
      vertex 13.25 2.11178 11.2147
      vertex 13.25 0.125 10.99
    endloop
  endfacet
  facet normal -1 1.11022e-16 -1.92296e-16
    outer loop
      vertex 13.25 4.02526 8.85178
      vertex 13.25 6.3125 7.41765
      vertex 13.25 3.37552 9.02588
    endloop
  endfacet
  facet normal -1 1.11022e-16 -1.92296e-16
    outer loop
      vertex 13.25 6.38822 10.7653
      vertex 13.25 6.3125 7.41765
      vertex 13.25 6.21412 10.1155
    endloop
  endfacet
  facet normal -1 1.11022e-16 -1.92296e-16
    outer loop
      vertex 13.25 4.69701 8.88698
      vertex 13.25 6.3125 7.41765
      vertex 13.25 4.02526 8.85178
    endloop
  endfacet
  facet normal -1 1.11022e-16 -1.92296e-16
    outer loop
      vertex 13.25 5.325 9.12805
      vertex 13.25 6.3125 7.41765
      vertex 13.25 4.69701 8.88698
    endloop
  endfacet
  facet normal -1 1.11022e-16 -1.92296e-16
    outer loop
      vertex 13.25 5.84776 9.55137
      vertex 13.25 6.3125 7.41765
      vertex 13.25 5.325 9.12805
    endloop
  endfacet
  facet normal -1 1.11022e-16 -1.92296e-16
    outer loop
      vertex 13.25 6.21412 10.1155
      vertex 13.25 6.3125 7.41765
      vertex 13.25 5.84776 9.55137
    endloop
  endfacet
  facet normal -1 1.11022e-16 -1.92296e-16
    outer loop
      vertex 13.25 8.375 10.99
      vertex 13.25 6.3125 7.41765
      vertex 13.25 6.38822 10.7653
    endloop
  endfacet
  facet normal -1 1.11022e-16 -1.92296e-16
    outer loop
      vertex 13.25 8.375 10.99
      vertex 13.25 6.38822 10.7653
      vertex 13.25 6.3125 14.5624
    endloop
  endfacet
  facet normal -1 1.11022e-16 -1.92296e-16
    outer loop
      vertex 13.25 6.11195 12.065
      vertex 13.25 6.3125 14.5624
      vertex 13.25 6.35302 11.437
    endloop
  endfacet
  facet normal -1 1.11022e-16 -1.92296e-16
    outer loop
      vertex 13.25 6.38822 10.7653
      vertex 13.25 6.35302 11.437
      vertex 13.25 6.3125 14.5624
    endloop
  endfacet
  facet normal -1 1.11022e-16 -1.92296e-16
    outer loop
      vertex 13.25 5.68863 12.5878
      vertex 13.25 6.3125 14.5624
      vertex 13.25 6.11195 12.065
    endloop
  endfacet
  facet normal -1 1.11022e-16 -1.92296e-16
    outer loop
      vertex 13.25 5.12448 12.9541
      vertex 13.25 6.3125 14.5624
      vertex 13.25 5.68863 12.5878
    endloop
  endfacet
  facet normal -1 1.11022e-16 -1.92296e-16
    outer loop
      vertex 13.25 3.175 12.852
      vertex 13.25 6.3125 14.5624
      vertex 13.25 3.80299 13.093
    endloop
  endfacet
  facet normal -1 1.11022e-16 -1.92296e-16
    outer loop
      vertex 13.25 6.3125 14.5624
      vertex 13.25 5.12448 12.9541
      vertex 13.25 4.47474 13.1282
    endloop
  endfacet
  facet normal -1 1.11022e-16 -1.92296e-16
    outer loop
      vertex 13.25 6.3125 14.5624
      vertex 13.25 4.47474 13.1282
      vertex 13.25 3.80299 13.093
    endloop
  endfacet
  facet normal -1 1.11022e-16 -1.92296e-16
    outer loop
      vertex 13.25 6.3125 14.5624
      vertex 13.25 3.175 12.852
      vertex 13.25 2.1875 14.5624
    endloop
  endfacet
  facet normal -1 1.11022e-16 -1.92296e-16
    outer loop
      vertex 13.25 2.65224 12.4286
      vertex 13.25 0.125 10.99
      vertex 13.25 3.175 12.852
    endloop
  endfacet
endsolid OpenSCAD_Model
